<svg xmlns="http://www.w3.org/2000/svg" viewBox="0 0 261.67 48.58"><defs><style>.cls-1{fill:#1d1e1c;}.cls-2{fill:#fff;}</style></defs><g id="Слой_2" data-name="Слой 2"><g id="Слой_1-2" data-name="Слой 1"><path class="cls-1" d="M32.88,17.69c-1.39-2.61-2.7-5.08-3-6.69a10.81,10.81,0,0,1-.15-4.56,3.52,3.52,0,0,0,2.15.74,3.56,3.56,0,0,0,3.52-3.59A3.55,3.55,0,0,0,31.93,0h0a6.59,6.59,0,0,0-6,3.76,8.31,8.31,0,0,0-.8,2.89H24.4V6.43A1.5,1.5,0,1,0,22,5.23a1.54,1.54,0,0,0,.52,1.15v.28h-.61V4.57a1.52,1.52,0,0,0-1-2.66,1.48,1.48,0,0,0-1,.44,1.53,1.53,0,0,0,.12-.6,1.49,1.49,0,1,0-3,0,1.36,1.36,0,0,0,.08.49,1.45,1.45,0,0,0-1.07-.46,1.52,1.52,0,0,0-1,2.67V6.66h-.61V6.42a1.5,1.5,0,1,0-2.4-1.19,1.5,1.5,0,0,0,.53,1.15v.28h-.71a8.1,8.1,0,0,0-.81-2.89A6.62,6.62,0,0,0,5.12,0h0A3.56,3.56,0,0,0,1.6,3.59,3.56,3.56,0,0,0,5.12,7.18a3.47,3.47,0,0,0,2.14-.74A10.76,10.76,0,0,1,7.12,11c-.28,1.61-1.58,4.08-3,6.69C2.14,21.48.06,25.4,0,28.48-.09,33.22,2.54,39.24,10.26,40.6A9.51,9.51,0,0,1,17.32,46,1.54,1.54,0,0,0,17,47a1.56,1.56,0,1,0,3.11,0,1.61,1.61,0,0,0-.36-1,9.48,9.48,0,0,1,7-5.39C34.48,39.24,37.12,33.22,37,28.48,37,25.4,34.89,21.48,32.88,17.69Zm-5.4,13.39a1,1,0,0,1-.12.17l-.07-.1Zm-1.07,1.09h0a6,6,0,0,1-2.4,1h0a2.32,2.32,0,0,0,.48-.46A1.51,1.51,0,0,1,26.41,32.17Zm2.19-4.48a2.57,2.57,0,0,0-4.09-.49l-.11.11V9.41h.66a36.08,36.08,0,0,0,2.07,9.8A21.78,21.78,0,0,1,28.6,27.69Zm-8.55.42-.2.09a1.91,1.91,0,0,0-.4.28V9.41h.6Zm1.87-.06V9.41h.61V28.33A2.6,2.6,0,0,0,21.92,28.05Zm-7.43.29V9.41h.61V28.06A2.43,2.43,0,0,0,14.49,28.34Zm3.09.12a2.65,2.65,0,0,0-.39-.26L17,28.1V9.41h.61ZM9.75,31.15l-.08.11-.13-.18Zm.88,1a1.53,1.53,0,0,1,1.93.54,2.4,2.4,0,0,0,.45.45v0a6,6,0,0,1-2.39-1Zm2-22.76V27.28l-.09-.09a2.56,2.56,0,0,0-1.86-.79,2.61,2.61,0,0,0-2.25,1.31,21.49,21.49,0,0,1,1.48-8.5A36.46,36.46,0,0,0,12,9.41ZM19.45,3l.13-.12a1.63,1.63,0,0,0-.12.59,1.5,1.5,0,0,0,.59,1.2v2h-.6ZM17,4.48a1.5,1.5,0,0,0,.58-1.19,1.62,1.62,0,0,0-.08-.49l.11.11V6.66H17Z"/><path class="cls-2" d="M36.6,28C36.5,23,30.18,14.7,29.49,10.67c-.59-3.43-.33-4.62.32-6.12A2.77,2.77,0,0,0,32.22,6,2.82,2.82,0,0,0,35,3.14,2.82,2.82,0,0,0,32.22.29h0a5.9,5.9,0,0,0-5.3,3.37A8.34,8.34,0,0,0,26.11,7H24V5.52A.77.77,0,0,0,23.81,4a.77.77,0,0,0-.75.77.75.75,0,0,0,.53.73V7h-2.1V3.7a.77.77,0,0,0-.22-1.5.75.75,0,0,0-.75.77.77.77,0,0,0,.58.75V7H19V2a.75.75,0,0,0,.58-.75.75.75,0,1,0-1.5,0,.78.78,0,0,0,.53.74V7H16.55V3.58a.77.77,0,0,0-.18-1.52.77.77,0,0,0-.75.77.78.78,0,0,0,.53.74V7H14.06V5.52a.74.74,0,1,0-.39,0V7H11.54a8,8,0,0,0-.78-3.29A5.89,5.89,0,0,0,5.46.29h0A2.81,2.81,0,0,0,2.66,3.14,2.81,2.81,0,0,0,5.43,6,2.77,2.77,0,0,0,7.85,4.55c.64,1.5.9,2.69.31,6.12-.69,4-7,12.3-7.1,17.37S3.9,38.22,10.7,39.42a10.4,10.4,0,0,1,7.84,6.36.83.83,0,1,0,1.13.77.85.85,0,0,0-.55-.79A10.43,10.43,0,0,1,27,39.42C33.76,38.22,36.7,33.11,36.6,28Zm-13-19.82V29.93A3.45,3.45,0,0,0,23,29a1.85,1.85,0,0,0-1.18-.76l-.32,0v-20Zm-2.49,0v20a1.93,1.93,0,0,0-.59.18,1.52,1.52,0,0,0-.77,1.12,1.36,1.36,0,0,0,.52,1.34,1.38,1.38,0,0,0,1.51.1h0a.69.69,0,0,0,.38-.62.67.67,0,0,0-1.33-.12s0,0-.06,0a.48.48,0,0,1-.2-.5c.11-.64.67-.67,1.12-.59a1.06,1.06,0,0,1,.67.44l0,0,0,0A2.11,2.11,0,0,1,23,30.87a1.06,1.06,0,0,1-.09.35h0a4.17,4.17,0,0,1-.27.38.46.46,0,0,0-.07.07h0a4.08,4.08,0,0,1-.91.63,3.19,3.19,0,0,1-.71.06c-.72,0-1.25-.89-1.87-1V8.22Zm-2.47,0V31.33c-.61.16-1.14,1-1.84,1a3.14,3.14,0,0,1-.71-.06,3.66,3.66,0,0,1-.91-.63h0a.46.46,0,0,0-.07-.07,4.17,4.17,0,0,1-.26-.38h0a1.06,1.06,0,0,1-.09-.35,2.1,2.1,0,0,1,.58-1.29l0,0,0,0a1,1,0,0,1,.66-.44c.45-.08,1,0,1.13.59a.51.51,0,0,1-.2.5l-.07,0a.67.67,0,0,0-1.33.12.71.71,0,0,0,.38.62h0a1.37,1.37,0,0,0,1.5-.1,1.34,1.34,0,0,0,.52-1.34,1.49,1.49,0,0,0-.77-1.12,1.55,1.55,0,0,0-.61-.18v-20Zm-2.48,0v20l-.29,0a1.85,1.85,0,0,0-1.18.76,3.42,3.42,0,0,0-.62,1V8.22Zm-2.58,25.3C5.36,32.17,8.2,22,9.52,18.49A34.85,34.85,0,0,0,11.57,8.22h2.1v21a5.63,5.63,0,0,0-1.22-1.84l-.14-.15A1.85,1.85,0,0,0,11,26.68a1.88,1.88,0,0,0-1.86,1.91A1.43,1.43,0,0,0,10,29.86a1.46,1.46,0,0,0,1.39,0,.69.69,0,1,0-.82-.68l-.21-.08a.61.61,0,0,1-.37-.51,1.05,1.05,0,0,1,1-1.07,1,1,0,0,1,.73.31l.15.16a5.52,5.52,0,0,1,1.23,2,2.89,2.89,0,0,0-2.35,1c2.21-.62,2.57,1,3.12,1.16a1,1,0,0,0,.4.06,2.15,2.15,0,0,0,1.65,1.14l.89.15Zm10.52,0H20.86l.89-.15a2.19,2.19,0,0,0,1.66-1.14,1,1,0,0,0,.4-.06c.54-.2.91-1.78,3.11-1.16a2.89,2.89,0,0,0-2.35-1,5.67,5.67,0,0,1,1.23-2c.05,0,.1-.11.16-.16a1,1,0,0,1,.73-.31,1.05,1.05,0,0,1,1,1.07.61.61,0,0,1-.37.51,1,1,0,0,1-.21.08.67.67,0,1,0-1.34,0,.69.69,0,0,0,.52.67,1.46,1.46,0,0,0,1.39,0,1.42,1.42,0,0,0,.84-1.27,1.89,1.89,0,0,0-1.86-1.91,1.86,1.86,0,0,0-1.33.56,1,1,0,0,1-.14.15A5.68,5.68,0,0,0,24,29.28V8.22h2.11a34.22,34.22,0,0,0,2.05,10.27C29.45,22,32.3,32.17,24.09,33.52Z"/><path class="cls-2" d="M47.43,9.58H53V10.7H48.73v1.79h2.11a3,3,0,0,1,1.94.55,1.92,1.92,0,0,1,.67,1.58,2,2,0,0,1-.73,1.68,3.29,3.29,0,0,1-2.09.59h-3.2Zm3.13,6.26a1.89,1.89,0,0,0,1.16-.3,1,1,0,0,0,.4-.88c0-.75-.52-1.12-1.56-1.12H48.73v2.3Z"/><path class="cls-2" d="M60.8,9.58v7.31H59.49V10.73h-2.8l-.07,1.83a15.18,15.18,0,0,1-.24,2.49,3.25,3.25,0,0,1-.62,1.45,1.48,1.48,0,0,1-1.18.49,3.29,3.29,0,0,1-.72-.1L54,15.71a1,1,0,0,0,.3,0c.42,0,.71-.25.88-.76a8.67,8.67,0,0,0,.32-2.38l.11-3Z"/><path class="cls-2" d="M67.52,15.2H64l-.7,1.69H61.9l3.2-7.31h1.3l3.22,7.31H68.23Zm-.44-1.07-1.34-3.19-1.33,3.19Z"/><path class="cls-2" d="M75.54,10.73H72v6.16h-1.3V9.58h4.83Z"/><path class="cls-2" d="M77.18,16.51a3.65,3.65,0,0,1-1.38-1.35,4,4,0,0,1,0-3.85A3.51,3.51,0,0,1,77.18,10a4.19,4.19,0,0,1,3.93,0,3.53,3.53,0,0,1,1.37,1.34,4,4,0,0,1,0,3.87,3.6,3.6,0,0,1-1.37,1.34,4.26,4.26,0,0,1-3.93,0Zm3.24-1a2.34,2.34,0,0,0,.9-.92,2.63,2.63,0,0,0,.32-1.32,2.69,2.69,0,0,0-.32-1.32,2.41,2.41,0,0,0-.9-.92,2.59,2.59,0,0,0-1.28-.32,2.61,2.61,0,0,0-1.28.32,2.41,2.41,0,0,0-.9.92,2.8,2.8,0,0,0-.32,1.32A2.74,2.74,0,0,0,77,14.55a2.34,2.34,0,0,0,.9.92,2.52,2.52,0,0,0,1.28.33A2.49,2.49,0,0,0,80.42,15.47Z"/><path class="cls-2" d="M89.51,10.73H87.15v6.16H85.84V10.73H83.49V9.58h6Z"/><path class="cls-2" d="M96.38,13.73a1.75,1.75,0,0,1,.35,1.13,1.8,1.8,0,0,1-.69,1.5,3.26,3.26,0,0,1-2,.53H90.66V9.58h3.18a3.13,3.13,0,0,1,1.88.49,1.64,1.64,0,0,1,.67,1.39,1.79,1.79,0,0,1-.27,1,1.72,1.72,0,0,1-.78.64A1.93,1.93,0,0,1,96.38,13.73ZM92,12.7h1.77a1.61,1.61,0,0,0,1-.26.92.92,0,0,0,.33-.77,1,1,0,0,0-.33-.78,1.55,1.55,0,0,0-1-.27H92Zm3.44,2.06c0-.71-.47-1.07-1.4-1.07H92v2.15h2C94.93,15.84,95.4,15.48,95.4,14.76Z"/><path class="cls-2" d="M99.57,16.51a3.62,3.62,0,0,1-1.37-1.35,4,4,0,0,1,0-3.85A3.49,3.49,0,0,1,99.57,10a4.19,4.19,0,0,1,3.93,0,3.53,3.53,0,0,1,1.37,1.34,3.7,3.7,0,0,1,.5,1.93,3.74,3.74,0,0,1-.5,1.94,3.6,3.6,0,0,1-1.37,1.34,4.26,4.26,0,0,1-3.93,0Zm3.25-1a2.25,2.25,0,0,0,.89-.92,2.64,2.64,0,0,0,.33-1.32,2.69,2.69,0,0,0-.33-1.32,2.32,2.32,0,0,0-.89-.92,2.74,2.74,0,0,0-2.57,0,2.39,2.39,0,0,0-.89.92A2.69,2.69,0,0,0,99,13.23a2.64,2.64,0,0,0,.33,1.32,2.32,2.32,0,0,0,.89.92,2.67,2.67,0,0,0,2.57,0Z"/><path class="cls-2" d="M111.38,9.89a2.33,2.33,0,0,1,1.05.9,2.51,2.51,0,0,1,.37,1.39,2.5,2.5,0,0,1-.37,1.38,2.29,2.29,0,0,1-1.05.91,4,4,0,0,1-1.61.31h-1.61v2.11h-1.32V9.58h2.93A3.85,3.85,0,0,1,111.38,9.89ZM111,13.26a1.34,1.34,0,0,0,.45-1.08A1.33,1.33,0,0,0,111,11.1a2,2,0,0,0-1.31-.37h-1.55v2.9h1.55A2,2,0,0,0,111,13.26Z"/><path class="cls-2" d="M114.06,9.58h1.3v5.19l3.83-5.19h1.23v7.31h-1.3V11.71l-3.83,5.18h-1.23Z"/><path class="cls-2" d="M127.58,10.73h-2.36v6.16h-1.31V10.73h-2.35V9.58h6Z"/><path class="cls-2" d="M134.06,15.75v1.14h-5.34V9.58h5.2v1.14h-3.87v1.9h3.43v1.11h-3.43v2Z"/><path class="cls-2" d="M141.62,9.58v7.31h-1.3V10.73h-2.81l-.06,1.83a15.18,15.18,0,0,1-.24,2.49,3.25,3.25,0,0,1-.62,1.45,1.48,1.48,0,0,1-1.18.49,3.29,3.29,0,0,1-.72-.1l.09-1.18a1,1,0,0,0,.3,0c.42,0,.71-.25.88-.76a8.67,8.67,0,0,0,.32-2.38l.1-3Z"/><path class="cls-2" d="M148.88,12.64a2.19,2.19,0,0,1,.69,1.75,2.32,2.32,0,0,1-.75,1.86,3.21,3.21,0,0,1-2.12.64h-3.06V9.58h1.3v2.47h2A2.92,2.92,0,0,1,148.88,12.64Zm-1,2.84a1.35,1.35,0,0,0,.42-1.07c0-.88-.54-1.32-1.61-1.32h-1.7v2.75h1.7A1.76,1.76,0,0,0,147.83,15.48Z"/><path class="cls-2" d="M157.25,9.58v7.31h-1.32V13.76h-3.68v3.13h-1.33V9.58h1.33v3h3.68v-3Z"/><path class="cls-2" d="M164.5,12.64a2.19,2.19,0,0,1,.69,1.75,2.32,2.32,0,0,1-.75,1.86,3.23,3.23,0,0,1-2.12.64h-3.06V9.58h1.3v2.47h2A3,3,0,0,1,164.5,12.64Zm-1.05,2.84a1.35,1.35,0,0,0,.42-1.07c0-.88-.54-1.32-1.61-1.32h-1.7v2.75h1.7A1.78,1.78,0,0,0,163.45,15.48Zm2.77-5.9h1.3v7.31h-1.3Z"/><path class="cls-2" d="M169.53,9.58h1.31v5.19l3.82-5.19h1.23v7.31h-1.3V11.71l-3.83,5.18h-1.23Zm1.79-.88a1.38,1.38,0,0,1-.47-1.12h.92a.79.79,0,0,0,.25.59,1,1,0,0,0,.68.21,1.05,1.05,0,0,0,.69-.21.75.75,0,0,0,.25-.59h.92a1.43,1.43,0,0,1-.48,1.12,2.14,2.14,0,0,1-1.38.39A2.1,2.1,0,0,1,171.32,8.7Z"/><path class="cls-2" d="M187.86,15.5a4.44,4.44,0,0,1-2.78.91v.77h-1.22v-.77a4.56,4.56,0,0,1-2.78-.92,2.8,2.8,0,0,1-1-2.27,2.81,2.81,0,0,1,1-2.27,4.56,4.56,0,0,1,2.78-.92V9.29h1.22V10a4.56,4.56,0,0,1,2.78.92,2.84,2.84,0,0,1,1,2.27A2.86,2.86,0,0,1,187.86,15.5ZM182,14.71a3.32,3.32,0,0,0,1.84.63V11.1c-1.65.13-2.47.84-2.47,2.12A1.85,1.85,0,0,0,182,14.71Zm4.91,0a1.87,1.87,0,0,0,.63-1.5,1.84,1.84,0,0,0-.63-1.49,3.25,3.25,0,0,0-1.85-.62v4.24A3.15,3.15,0,0,0,186.93,14.71Z"/><path class="cls-2" d="M191.56,16.51a3.62,3.62,0,0,1-1.37-1.35,4,4,0,0,1,0-3.85A3.49,3.49,0,0,1,191.56,10a4.19,4.19,0,0,1,3.93,0,3.53,3.53,0,0,1,1.37,1.34,3.7,3.7,0,0,1,.5,1.93,3.74,3.74,0,0,1-.5,1.94,3.6,3.6,0,0,1-1.37,1.34,4.26,4.26,0,0,1-3.93,0Zm3.25-1a2.25,2.25,0,0,0,.89-.92,2.64,2.64,0,0,0,.33-1.32,2.69,2.69,0,0,0-.33-1.32,2.32,2.32,0,0,0-.89-.92,2.74,2.74,0,0,0-2.57,0,2.39,2.39,0,0,0-.89.92,2.69,2.69,0,0,0-.33,1.32,2.64,2.64,0,0,0,.33,1.32,2.32,2.32,0,0,0,.89.92,2.67,2.67,0,0,0,2.57,0Z"/><path class="cls-2" d="M205.16,9.58v7.31h-1.33V13.76h-3.68v3.13h-1.32V9.58h1.32v3h3.68v-3Z"/><path class="cls-2" d="M214.14,15.74v2.7h-1.22V16.89h-5.47v1.55h-1.23v-2.7h.31c.45,0,.76-.36.94-1a12.94,12.94,0,0,0,.33-2.82l.08-2.32h5.22v6.16Zm-5.39-1.35a2.76,2.76,0,0,1-.55,1.35h3.61v-5H209L209,12A17.14,17.14,0,0,1,208.75,14.39Z"/><path class="cls-2" d="M53.72,21.23v7.31h-1.3V22.38H48.73v6.16h-1.3V21.23Z"/><path class="cls-2" d="M57.06,28.16a3.49,3.49,0,0,1-1.37-1.35,4,4,0,0,1,0-3.85,3.62,3.62,0,0,1,1.37-1.35,4.26,4.26,0,0,1,3.93,0A3.6,3.6,0,0,1,62.36,23a4,4,0,0,1,0,3.87A3.53,3.53,0,0,1,61,28.16a4.19,4.19,0,0,1-3.93,0Zm3.25-1a2.32,2.32,0,0,0,.89-.92,2.69,2.69,0,0,0,.33-1.32,2.64,2.64,0,0,0-.33-1.32,2.25,2.25,0,0,0-.89-.92,2.67,2.67,0,0,0-2.57,0,2.32,2.32,0,0,0-.89.92,2.64,2.64,0,0,0-.33,1.32,2.69,2.69,0,0,0,.33,1.32,2.39,2.39,0,0,0,.89.92,2.67,2.67,0,0,0,2.57,0Z"/><path class="cls-2" d="M71.18,27.39V30.1H70V28.54H64.5V30.1H63.27V27.39h.3c.45,0,.77-.36,1-1a12.77,12.77,0,0,0,.33-2.82l.08-2.32h5.22v6.16ZM65.79,26a2.66,2.66,0,0,1-.55,1.35h3.62v-5H66.07l0,1.3A17,17,0,0,1,65.79,26Z"/><path class="cls-2" d="M79.49,27.39V30.1H78.27V28.54H72.8V30.1H71.57V27.39h.31c.44,0,.76-.36.94-1a12.77,12.77,0,0,0,.33-2.82l.08-2.32h5.22v6.16ZM74.09,26a2.67,2.67,0,0,1-.54,1.35h3.61v-5H74.37l-.05,1.3A17,17,0,0,1,74.09,26Z"/><path class="cls-2" d="M86.07,27.4v1.14H80.73V21.23h5.2v1.14H82.05v1.9h3.44v1.12H82.05v2Z"/><path class="cls-2" d="M92.09,21.55a2.25,2.25,0,0,1,1,.89,2.8,2.8,0,0,1,0,2.78,2.33,2.33,0,0,1-1,.9,3.85,3.85,0,0,1-1.61.31H88.87v2.11H87.55V21.23h2.93A3.85,3.85,0,0,1,92.09,21.55Zm-.36,3.36a1.51,1.51,0,0,0,0-2.15,2,2,0,0,0-1.31-.38H88.87v2.9h1.55A2,2,0,0,0,91.73,24.91Z"/><path class="cls-2" d="M100.83,25.46H99.61v3.08H98.32V25.46H97.1l-1.8,3.08H93.77L96,24.73l-2.08-3.5h1.4l1.74,3.06h1.25V21.23h1.29v3.06h1.23l1.75-3.06H104l-2.08,3.51,2.23,3.8h-1.52Z"/><path class="cls-2" d="M107.7,25.46h-1.32v3.08h-1.3V21.23h1.3v3.06h1.36l2.05-3.06h1.4l-2.43,3.54,2.52,3.77h-1.49Z"/><path class="cls-2" d="M112.2,21.23h1.3v5.19l3.83-5.19h1.23v7.31h-1.3V23.36l-3.83,5.18H112.2Z"/><path class="cls-2" d="M126,25.46h-1.33v3.08h-1.3V21.23h1.3v3.06H126l2-3.06h1.41L127,24.77l2.53,3.77h-1.5Z"/><path class="cls-2" d="M136.67,21.23l-3.09,5.9a3.35,3.35,0,0,1-1,1.18,2.08,2.08,0,0,1-1.22.39,2.62,2.62,0,0,1-1-.23l.33-1.07a2.28,2.28,0,0,0,.69.14,1.24,1.24,0,0,0,1.06-.68l.11-.18-2.84-5.45h1.41l2.11,4.29,2.17-4.29Z"/><path class="cls-2" d="M143.57,21.23v7.31h-1.3V22.38h-2.81l-.06,1.83a16.2,16.2,0,0,1-.25,2.49,3.1,3.1,0,0,1-.62,1.45,1.48,1.48,0,0,1-1.18.5,3.41,3.41,0,0,1-.72-.11l.09-1.18a1,1,0,0,0,.31,0c.41,0,.7-.25.88-.75a9.17,9.17,0,0,0,.32-2.39l.1-3Z"/><path class="cls-2" d="M150.83,24.3a2.16,2.16,0,0,1,.68,1.75,2.31,2.31,0,0,1-.75,1.85,3.16,3.16,0,0,1-2.12.64h-3.06V21.23h1.3v2.48h2A2.92,2.92,0,0,1,150.83,24.3Zm-1.06,2.83a1.33,1.33,0,0,0,.42-1.06c0-.89-.53-1.33-1.61-1.33h-1.7V27.5h1.7A1.7,1.7,0,0,0,149.77,27.13Z"/><path class="cls-2" d="M157.32,22.38H155v6.16h-1.31V22.38H151.3V21.23h6Z"/><path class="cls-2" d="M164.27,21.23l-3.09,5.9a3.33,3.33,0,0,1-1,1.18,2.14,2.14,0,0,1-1.23.39,2.65,2.65,0,0,1-1-.23l.33-1.07a2.39,2.39,0,0,0,.69.14,1.23,1.23,0,0,0,1.06-.68l.11-.18-2.84-5.45h1.42l2.1,4.29L163,21.23Z"/><path class="cls-2" d="M169.73,21.55a2.25,2.25,0,0,1,1.05.89,2.8,2.8,0,0,1,0,2.78,2.33,2.33,0,0,1-1.05.9,3.82,3.82,0,0,1-1.61.31h-1.61v2.11h-1.32V21.23h2.93A3.82,3.82,0,0,1,169.73,21.55Zm-.36,3.36a1.51,1.51,0,0,0,0-2.15,2,2,0,0,0-1.31-.38h-1.55v2.9h1.55A2,2,0,0,0,169.37,24.91Z"/><path class="cls-2" d="M177.66,24.3a2.16,2.16,0,0,1,.69,1.75,2.32,2.32,0,0,1-.76,1.85,3.15,3.15,0,0,1-2.11.64h-3.07V21.23h1.31v2.48h2A2.92,2.92,0,0,1,177.66,24.3Zm-1,2.83a1.36,1.36,0,0,0,.41-1.06c0-.89-.53-1.33-1.61-1.33h-1.69V27.5h1.69A1.74,1.74,0,0,0,176.61,27.13Zm2.76-5.9h1.3v7.31h-1.3Z"/><path class="cls-2" d="M185.5,21.23h1.3v5.19l3.83-5.19h1.23v7.31h-1.31V23.36l-3.82,5.18H185.5Z"/><path class="cls-2" d="M196.67,21.23H198v5.19l3.83-5.19H203v7.31h-1.3V23.36l-3.83,5.18h-1.23Z"/><path class="cls-2" d="M206.35,28.16A3.5,3.5,0,0,1,205,26.82,4,4,0,0,1,205,23a3.6,3.6,0,0,1,1.37-1.34,4.24,4.24,0,0,1,3.55-.17,3.24,3.24,0,0,1,1.22.91l-.86.82a2.45,2.45,0,0,0-1.9-.85,2.58,2.58,0,0,0-1.31.33,2.34,2.34,0,0,0-.91.91,2.9,2.9,0,0,0,0,2.65,2.37,2.37,0,0,0,.91.92,2.58,2.58,0,0,0,1.31.33,2.44,2.44,0,0,0,1.9-.87l.86.83a3.19,3.19,0,0,1-1.23.91,4.14,4.14,0,0,1-3.55-.17Z"/><path class="cls-2" d="M215,25.46h-1.32v3.08h-1.3V21.23h1.3v3.06H215l2-3.06h1.4L216,24.77l2.53,3.77h-1.5Z"/><path class="cls-2" d="M225.67,21.23l-3.1,5.9a3.23,3.23,0,0,1-1,1.18,2.08,2.08,0,0,1-1.22.39,2.58,2.58,0,0,1-1-.23l.32-1.07a2.39,2.39,0,0,0,.7.14,1.22,1.22,0,0,0,1.05-.68l.12-.18-2.84-5.45h1.41l2.11,4.29,2.16-4.29Z"/><path class="cls-2" d="M227.84,28.16a3.44,3.44,0,0,1-1.36-1.34,4,4,0,0,1,0-3.87,3.6,3.6,0,0,1,1.37-1.34,4.24,4.24,0,0,1,3.55-.17,3.32,3.32,0,0,1,1.22.91l-.86.82a2.45,2.45,0,0,0-1.9-.85,2.58,2.58,0,0,0-1.31.33,2.34,2.34,0,0,0-.91.91,2.9,2.9,0,0,0,0,2.65,2.37,2.37,0,0,0,.91.92,2.58,2.58,0,0,0,1.31.33,2.44,2.44,0,0,0,1.9-.87l.86.83a3.27,3.27,0,0,1-1.23.91,4.14,4.14,0,0,1-3.55-.17Z"/><path class="cls-2" d="M235,28.16a3.5,3.5,0,0,1-1.36-1.34,4.07,4.07,0,0,1,0-3.87A3.67,3.67,0,0,1,235,21.61a4.24,4.24,0,0,1,3.55-.17,3.24,3.24,0,0,1,1.22.91l-.85.82a2.47,2.47,0,0,0-1.91-.85,2.6,2.6,0,0,0-1.31.33,2.34,2.34,0,0,0-.91.91,2.9,2.9,0,0,0,0,2.65,2.37,2.37,0,0,0,.91.92,2.6,2.6,0,0,0,1.31.33,2.46,2.46,0,0,0,1.91-.87l.85.83a3.19,3.19,0,0,1-1.23.91,4.14,4.14,0,0,1-3.55-.17Z"/><path class="cls-2" d="M246.12,22.38h-2.36v6.16h-1.31V22.38h-2.36V21.23h6Z"/><path class="cls-2" d="M253,25.38a1.84,1.84,0,0,1,.35,1.14,1.78,1.78,0,0,1-.69,1.49,3.26,3.26,0,0,1-2,.53h-3.38V21.23h3.18a3.21,3.21,0,0,1,1.88.49,1.64,1.64,0,0,1,.67,1.39,1.77,1.77,0,0,1-.27,1,1.72,1.72,0,0,1-.78.64A2,2,0,0,1,253,25.38Zm-4.42-1h1.77a1.55,1.55,0,0,0,1-.26.92.92,0,0,0,.33-.77,1,1,0,0,0-.33-.78,1.55,1.55,0,0,0-1-.26h-1.77ZM252,26.41c0-.71-.47-1.06-1.4-1.06h-2V27.5h2C251.54,27.5,252,27.13,252,26.41Z"/><path class="cls-2" d="M259.57,26.85H256l-.7,1.69h-1.37l3.21-7.31h1.3l3.22,7.31h-1.39Zm-.44-1.07-1.34-3.19-1.33,3.19Z"/><path class="cls-2" d="M48.74,39.81a3.5,3.5,0,0,1-1.36-1.34,3.77,3.77,0,0,1-.49-1.93,3.68,3.68,0,0,1,.5-1.93,3.5,3.5,0,0,1,1.36-1.34,3.87,3.87,0,0,1,2-.49,3.94,3.94,0,0,1,1.6.31,3.34,3.34,0,0,1,1.22.91l-.85.83A2.48,2.48,0,0,0,50.76,34a2.63,2.63,0,0,0-1.31.33,2.25,2.25,0,0,0-.9.91,2.68,2.68,0,0,0-.33,1.33,2.7,2.7,0,0,0,.33,1.33,2.25,2.25,0,0,0,.9.91,2.63,2.63,0,0,0,1.31.33,2.46,2.46,0,0,0,1.91-.87l.85.84a3.21,3.21,0,0,1-1.22.9,4,4,0,0,1-1.61.32A3.87,3.87,0,0,1,48.74,39.81Z"/><path class="cls-2" d="M60.09,39.05v1.14H54.75V32.88H60V34H56.08v1.9h3.43V37H56.08v2Z"/><path class="cls-2" d="M66.11,33.2a2.41,2.41,0,0,1,1.06.9,2.58,2.58,0,0,1,.36,1.38,2.64,2.64,0,0,1-.36,1.39,2.41,2.41,0,0,1-1.06.9,3.82,3.82,0,0,1-1.61.31H62.89v2.11H61.57V32.88H64.5A3.82,3.82,0,0,1,66.11,33.2Zm-.36,3.36a1.51,1.51,0,0,0,0-2.15A2,2,0,0,0,64.44,34H62.89v2.91h1.55A2,2,0,0,0,65.75,36.56Z"/><path class="cls-2" d="M73.62,34H70.09v6.16H68.79V32.88h4.84Z"/><path class="cls-2" d="M80.08,39.05v1.14H74.74V32.88h5.19V34H76.06v1.9H79.5V37H76.06v2Z"/><path class="cls-2" d="M86.92,32.88v7.31H85.61v-2h-1.9l-1.32,2H81l1.53-2.25a2.25,2.25,0,0,1-1.14-.9A2.57,2.57,0,0,1,81,35.57a2.75,2.75,0,0,1,.37-1.44,2.3,2.3,0,0,1,1-.93A3.67,3.67,0,0,1,84,32.88Zm-4.17,1.54a1.43,1.43,0,0,0-.43,1.13,1.47,1.47,0,0,0,.41,1.11,1.71,1.71,0,0,0,1.21.39h1.67V34H84A1.79,1.79,0,0,0,82.75,34.42Z"/><path class="cls-2" d="M98,32.88v7.31H96.73V34H93v6.16h-1.3V32.88Z"/><path class="cls-2" d="M104.58,33.2a2.41,2.41,0,0,1,1.06.9,2.58,2.58,0,0,1,.36,1.38,2.64,2.64,0,0,1-.36,1.39,2.41,2.41,0,0,1-1.06.9,3.79,3.79,0,0,1-1.61.31h-1.61v2.11H100V32.88H103A3.79,3.79,0,0,1,104.58,33.2Zm-.36,3.36a1.51,1.51,0,0,0,0-2.15,2,2,0,0,0-1.31-.38h-1.55v2.91h1.55A2,2,0,0,0,104.22,36.56Z"/><path class="cls-2" d="M108.69,39.81a3.53,3.53,0,0,1-1.37-1.34,4,4,0,0,1,0-3.86,3.53,3.53,0,0,1,1.37-1.34,4.19,4.19,0,0,1,3.93,0A3.53,3.53,0,0,1,114,34.61a4,4,0,0,1,0,3.86,3.53,3.53,0,0,1-1.37,1.34,4.19,4.19,0,0,1-3.93,0Zm3.24-1a2.41,2.41,0,0,0,.9-.92,2.81,2.81,0,0,0,0-2.64,2.34,2.34,0,0,0-.9-.92,2.49,2.49,0,0,0-1.28-.33,2.52,2.52,0,0,0-1.28.33,2.34,2.34,0,0,0-.9.92,2.88,2.88,0,0,0,0,2.64,2.41,2.41,0,0,0,.9.92,2.52,2.52,0,0,0,1.28.33A2.49,2.49,0,0,0,111.93,38.78Z"/><path class="cls-2" d="M117.28,39.81a3.5,3.5,0,0,1-1.36-1.34,4,4,0,0,1,0-3.86,3.53,3.53,0,0,1,1.37-1.34,3.87,3.87,0,0,1,1.95-.49,4,4,0,0,1,1.6.31,3.34,3.34,0,0,1,1.22.91l-.86.83a2.46,2.46,0,0,0-1.9-.86,2.58,2.58,0,0,0-1.31.33,2.34,2.34,0,0,0-.91.91,2.78,2.78,0,0,0-.32,1.33,2.81,2.81,0,0,0,.32,1.33,2.34,2.34,0,0,0,.91.91,2.58,2.58,0,0,0,1.31.33,2.44,2.44,0,0,0,1.9-.87l.86.84a3.17,3.17,0,0,1-1.23.9,4,4,0,0,1-1.6.32A3.87,3.87,0,0,1,117.28,39.81Z"/><path class="cls-2" d="M125.91,37.11h-1.32v3.08h-1.3V32.88h1.3v3.06H126l2-3.06h1.4L127,36.42l2.53,3.77H128Z"/><path class="cls-2" d="M136.6,32.88l-3.1,5.9a3.07,3.07,0,0,1-1,1.18,2.08,2.08,0,0,1-1.22.39,2.58,2.58,0,0,1-1.05-.23l.32-1.07a2.1,2.1,0,0,0,.7.14,1.22,1.22,0,0,0,1.05-.68l.12-.17-2.84-5.46H131l2.11,4.3,2.16-4.3Z"/><path class="cls-2" d="M142.06,33.2a2.44,2.44,0,0,1,1.05.9,2.58,2.58,0,0,1,.37,1.38,2.65,2.65,0,0,1-.37,1.39,2.44,2.44,0,0,1-1.05.9,3.87,3.87,0,0,1-1.62.31h-1.6v2.11h-1.33V32.88h2.93A3.87,3.87,0,0,1,142.06,33.2Zm-.36,3.36a1.53,1.53,0,0,0,0-2.15,2,2,0,0,0-1.32-.38h-1.54v2.91h1.54A2,2,0,0,0,141.7,36.56Z"/><path class="cls-2" d="M144.74,32.88H146v5.19l3.83-5.19h1.23v7.31h-1.31V35L146,40.19h-1.23Z"/><path class="cls-2" d="M159.42,32.88v7.31H158.1V37.06h-3.69v3.13h-1.32V32.88h1.32v3h3.69v-3Z"/><path class="cls-2" d="M166.14,38.5h-3.57l-.7,1.69h-1.36l3.2-7.31H165l3.21,7.31h-1.38Zm-.44-1.06-1.35-3.2L163,37.44Z"/></g></g></svg>