<svg xmlns="http://www.w3.org/2000/svg" xmlns:xlink="http://www.w3.org/1999/xlink" viewBox="0 0 198.33 46.69"><defs><style>.cls-1{fill:#fff;}.cls-2{fill:url(#Черно-белый_2);}.cls-3{fill:url(#Черно-белый_2-2);}</style><linearGradient id="Черно-белый_2" x1="24.84" y1="-1.06" x2="24.84" y2="22.17" gradientUnits="userSpaceOnUse"><stop offset="0" stop-color="#fff"/><stop offset="1" stop-color="#1d1d1b"/></linearGradient><linearGradient id="Черно-белый_2-2" x1="24.84" y1="47.44" x2="24.84" y2="24.43" xlink:href="#Черно-белый_2"/></defs><g id="Слой_2" data-name="Слой 2"><g id="Слой_1-2" data-name="Слой 1"><path class="cls-1" d="M9.14,22.28h1.71A3.3,3.3,0,0,0,14,20.13h0L17.88,9.58V3.78A3.64,3.64,0,0,0,14.24.14H.14V.26A3.65,3.65,0,0,1,2.87,3.78V42.9A3.65,3.65,0,0,1,.14,46.43v.11h14.1a3.64,3.64,0,0,0,3.64-3.64V37.12L13.94,26.56a3.29,3.29,0,0,0-3.09-2.16H9.14a1,1,0,0,1-.75-.31,1,1,0,0,1-.31-.75A1.06,1.06,0,0,1,9.14,22.28Z"/><path d="M14.24,46.69H.14A.15.15,0,0,1,0,46.54v-.11a.14.14,0,0,1,.11-.14A3.49,3.49,0,0,0,2.72,42.9V3.78A3.49,3.49,0,0,0,.11.4.15.15,0,0,1,0,.26V.14A.14.14,0,0,1,.14,0h14.1A3.79,3.79,0,0,1,18,3.78v5.8a.09.09,0,0,1,0,.05L14.09,20.17a3.48,3.48,0,0,1-3.24,2.26H9.14a.92.92,0,0,0-.92.91.92.92,0,0,0,.92.92h1.71a3.43,3.43,0,0,1,3.22,2.25L18,37.07a.11.11,0,0,1,0,0V42.9A3.79,3.79,0,0,1,14.24,46.69ZM.14,46.43Zm.53,0H14.24a3.5,3.5,0,0,0,3.5-3.5V37.15L13.8,26.61a3.13,3.13,0,0,0-3-2.06H9.14a1.23,1.23,0,0,1-1.21-1.21,1.21,1.21,0,0,1,1.21-1.2h1.71a3.18,3.18,0,0,0,3-2.06L17.74,9.55V3.78A3.5,3.5,0,0,0,14.24.29H.67A3.76,3.76,0,0,1,3,3.78V42.9A3.78,3.78,0,0,1,.67,46.4Z"/><path class="cls-2" d="M24.1.14a3.89,3.89,0,0,0-3.65,2.54l-2.57,6.9L14,20.12h0a3.3,3.3,0,0,1-3.1,2.15H26.94A3.53,3.53,0,0,0,30.24,20l6.6-17.7a3.26,3.26,0,0,1,2-2V.14Z"/><path d="M26.94,22.43H10.85a.15.15,0,0,1-.14-.15.14.14,0,0,1,.14-.14,3.18,3.18,0,0,0,3-2.06l6.5-17.45A4,4,0,0,1,24.1,0H38.83A.14.14,0,0,1,39,.14V.33a.15.15,0,0,1-.1.14A3.13,3.13,0,0,0,37,2.35l-6.6,17.7A3.68,3.68,0,0,1,26.94,22.43Zm-14.72-.29H26.94A3.39,3.39,0,0,0,30.1,20l6.61-17.7a3.35,3.35,0,0,1,1.84-2H24.1a3.78,3.78,0,0,0-3.52,2.43L14.09,20.17A3.52,3.52,0,0,1,12.22,22.14Z"/><path class="cls-3" d="M36.83,44.39l-6.5-17.45a3.92,3.92,0,0,0-3.65-2.54H10.85a3.29,3.29,0,0,1,3.09,2.16l3.94,10.56,2.66,7.14a3.52,3.52,0,0,0,3.29,2.28h15v-.19A3.26,3.26,0,0,1,36.83,44.39Z"/><path d="M38.83,46.69h-15a3.68,3.68,0,0,1-3.42-2.38L13.8,26.61a3.13,3.13,0,0,0-3-2.06.15.15,0,0,1-.14-.15.14.14,0,0,1,.14-.14H26.68a4,4,0,0,1,3.78,2.63L37,44.34h0a3.15,3.15,0,0,0,1.91,1.88.14.14,0,0,1,.1.13v.19A.15.15,0,0,1,38.83,46.69ZM12.22,24.55a3.4,3.4,0,0,1,1.85,2l6.61,17.7a3.37,3.37,0,0,0,3.15,2.19H38.56a3.4,3.4,0,0,1-1.87-2L30.19,27a3.75,3.75,0,0,0-3.51-2.44Z"/><path class="cls-1" d="M132.09,14.77c-.61,0-1.11,0-1.59,0a.8.8,0,0,1-.49-.36,13.07,13.07,0,0,1-.9-1.64,1,1,0,0,0-1.35-.65v2.61h-1.6V12.15c-.72-.26-1.14-.06-1.38.56-.11.28-.34.51-.42.79-.4,1.25-1.27,1.52-2.55,1.18.5-.86,1-1.75,1.49-2.56a1.38,1.38,0,0,0,0-1.8c-.52-.72-.92-1.53-1.38-2.32,1.56-.28,1.56-.27,2.25,1a10.65,10.65,0,0,1,.57,1,1,1,0,0,0,1.4.58V8h1.56V10.6a.93.93,0,0,0,1.37-.56c.14-.32.38-.6.5-.92A1.65,1.65,0,0,1,131.92,8c-.5.87-1,1.77-1.53,2.61a1,1,0,0,0,0,1.22C131,12.75,131.48,13.71,132.09,14.77Z"/><path class="cls-1" d="M85.77,19.64H91v5.48l.88.07v2.68h-1.4V26.54H85.72l-.06,1.31H84.23V25.23c1-.09,1.17-.88,1.26-1.65.12-1,.14-2,.2-3C85.71,20.3,85.74,20,85.77,19.64ZM89.38,21H87.22l-.51,4.11h2.67Z"/><path class="cls-1" d="M159.08,20l.13-.62h1.34l.16.62c2.5.42,3.58,1.38,3.5,3.14s-1.18,2.66-3.5,2.92l-.13.69h-1.41l-.06-.64c-2.66-.54-3.57-1.35-3.55-3.12S156.58,20.42,159.08,20Zm1.59,4.71c1.38-.09,2-.68,2-1.79s-.75-1.52-2-1.52Zm-1.57,0V21.39c-1.25,0-1.95.59-2,1.6S157.79,24.62,159.1,24.71Z"/><path class="cls-1" d="M92.15,7.94h5.2V13.4l.89.09v2.67h-1.4V14.82H92.09L92,16.13H90.56c0-.77,0-1.56,0-2.35a.4.4,0,0,1,.23-.31c.8-.15.93-.8,1-1.41.13-1.06.16-2.14.24-3.21C92.08,8.56,92.11,8.27,92.15,7.94Zm3.56,5.48V9.29H93.58l-.53,4.13Z"/><path class="cls-1" d="M188.25,27.86l-.07-1.33h-4.73l-.1,1.32H182v-2.6c.93-.13,1.16-.85,1.23-1.66.13-1.29.21-2.58.31-3.93h5.22v5.46l.93.08v2.66ZM187,25.13V21h-2.1c-.19,1.41-.36,2.75-.54,4.11Z"/><path class="cls-1" d="M100.84,14.8l-.06,1.35H99.36V13.54c.88-.12,1.15-.79,1.22-1.57.13-1.32.22-2.64.33-4h5.18v5.42l.91.14v2.63h-1.37l-.11-1.34Zm3.63-1.38V9.29h-2.14l-.52,4.13Z"/><path class="cls-1" d="M192,31.4c1.33,0,2.63,0,3.91,0a1.74,1.74,0,0,1,1.7,1.14,1.83,1.83,0,0,1-.62,2,4.51,4.51,0,0,1,.89,1A1.72,1.72,0,0,1,196.58,38a14.1,14.1,0,0,1-2.53.17c-.67,0-1.34,0-2.08,0ZM193.58,37c.7,0,1.32,0,1.94,0a.79.79,0,0,0,.83-.86.76.76,0,0,0-.82-.78h-1.95Zm0-2.85a9,9,0,0,0,1.73,0,1,1,0,0,0,.65-.71,1,1,0,0,0-.59-.76,8.55,8.55,0,0,0-1.79-.14Z"/><path class="cls-1" d="M159,36.81l.95.1v2.71h-1.42V38.21h-5.68V31.36h1.56v5.45h3V31.36H159Z"/><path class="cls-1" d="M81.14,22.36l-2.35,3.19c-.75,1-.75,1-2.16.87V19.67h1.53v4.08l.17.06,2.45-3.33c.74-1,.73-1,2.1-.8v6.75H81.32V22.38Z"/><path class="cls-1" d="M185.27,31.36V35.7l1.39-1.88a15.31,15.31,0,0,0,1.18-1.63,1.62,1.62,0,0,1,2.11-.8v6.75h-1.53v-4l-.16-.07c-.23.3-.47.59-.69.89a25.82,25.82,0,0,0-1.71,2.37,1.68,1.68,0,0,1-2.16.8V31.36Z"/><path class="cls-1" d="M128.06,38.11V31.37h1.56v4.07l.16.06.95-1.26c.48-.65,1-1.26,1.41-1.94a1.69,1.69,0,0,1,2.16-.91v6.75h-1.53v-4l-.16,0c-.78,1-1.62,2.07-2.31,3.18A1.81,1.81,0,0,1,128.06,38.11Z"/><path class="cls-1" d="M67.53,14.72V10.45c-.92,1.24-1.77,2.26-2.46,3.38a1.78,1.78,0,0,1-2.22.87V8h1.54v4.09l.17.06C65.36,11,66.23,10,67,8.83A1.7,1.7,0,0,1,69.11,8v6.74Z"/><path class="cls-1" d="M161.43,38.12V31.36h1.51v4.1l.17.07.95-1.27a23.55,23.55,0,0,0,1.44-2,1.66,1.66,0,0,1,2.16-.86v6.73h-1.54V34.08l-.16,0c-.8,1.08-1.67,2.11-2.37,3.26A1.75,1.75,0,0,1,161.43,38.12Z"/><path class="cls-1" d="M144.6,38.11V31.36h1.51v4.1l.17.07,1.22-1.63a14.29,14.29,0,0,0,1.22-1.7,1.65,1.65,0,0,1,2.12-.82v6.75h-1.55V34.08l-.16,0c-.77,1-1.59,2.05-2.28,3.14A1.77,1.77,0,0,1,144.6,38.11Z"/><path class="cls-1" d="M172.83,23.1a3.51,3.51,0,0,1-3.76,3.51,3.56,3.56,0,1,1,0-7.1A3.52,3.52,0,0,1,172.83,23.1Zm-1.64,0a2,2,0,0,0-2.1-2.21,2.16,2.16,0,0,0,0,4.32A2,2,0,0,0,171.19,23.11Z"/><path class="cls-1" d="M82.32,11.28a3.53,3.53,0,0,1,3.8-3.48,3.56,3.56,0,1,1-.23,7.1A3.5,3.5,0,0,1,82.32,11.28Zm5.87.08A2.09,2.09,0,0,0,86.08,9.2a2.07,2.07,0,0,0-2.14,2.11,2.13,2.13,0,1,0,4.25,0Z"/><path class="cls-1" d="M132.85,26.61a3.55,3.55,0,1,1,3.75-3.54A3.53,3.53,0,0,1,132.85,26.61Zm2.1-3.55a2.11,2.11,0,1,0-2.09,2.16A2.05,2.05,0,0,0,135,23.06Z"/><path class="cls-1" d="M143.64,23a3.76,3.76,0,1,1,3.71,3.57A3.54,3.54,0,0,1,143.64,23Zm1.65,0a2,2,0,0,0,2.09,2.15,2.16,2.16,0,0,0,0-4.32A2,2,0,0,0,145.29,23.07Z"/><path class="cls-1" d="M80.79,8v6.78H79.21V9.3h-3v5.43H74.6V8Z"/><path class="cls-1" d="M136.35,31.35h1.56V34H141v-2.6h1.59v6.78H141V35.45h-3.06v2.68h-1.59Z"/><path class="cls-1" d="M101.87,23.75v2.67h-1.59V19.65h1.55v2.59h3.09V19.66h1.58v6.77h-1.57V23.75Z"/><path class="cls-1" d="M174.36,19.63h1.56v2.63H179V19.67h1.58v6.78H179V23.76h-3v2.68h-1.6Z"/><path class="cls-1" d="M103.34,35.45h-3.08v2.68H98.65V31.36h1.56V34h3.09V31.38h1.57v6.76h-1.53Z"/><path class="cls-1" d="M53.54,8v6.78H52V9.29H48.94v5.44H47.37V8Z"/><path class="cls-1" d="M52,26.44V21H49v5.43H47.37V19.66h6.16v6.78Z"/><path class="cls-1" d="M98.52,19.67v1.24H95v1.46h3.07v1.24H95v1.54h3.6v1.29H93.38V19.67Z"/><path class="cls-1" d="M135,12.12v2.6h-1.57V8h1.52v2.65c.7.17,1.23.17,1.56-.53.2-.43.57-.78.75-1.21.45-1,1.25-1.11,2.31-.89l-2.18,3.26,2.21,3.42c-1.47.33-1.69.24-2.45-.95a6.32,6.32,0,0,1-.6-1A1.14,1.14,0,0,0,135,12.12Z"/><path class="cls-1" d="M124,26.44h-1.62V19.65H124v2.66a1.1,1.1,0,0,0,1.54-.58c.19-.38.51-.69.67-1.08.44-1.06,1.24-1.22,2.36-1-.59.88-1.12,1.73-1.73,2.53a1,1,0,0,0,0,1.44c.64.85,1.18,1.78,1.77,2.69-1.27.37-1.7.22-2.35-.78a12.32,12.32,0,0,1-.69-1.08,1.11,1.11,0,0,0-1.51-.67Z"/><path class="cls-1" d="M66.75,32.7H64.42c0,.6,0,1.22-.1,1.82A17.28,17.28,0,0,1,64,36.81c-.33,1.28-1.15,1.71-2.53,1.35l.07-1.26c1,0,1.19-.74,1.26-1.47.1-1,.11-2.09.17-3.14,0-.3,0-.59.05-.93h5.23v6.79H66.75Z"/><path class="cls-1" d="M57.12,13v1.77H55.53V7.83c1.39.08,2.77,0,4.1.26a2.23,2.23,0,0,1,1.84,2.47,2.31,2.31,0,0,1-2,2.24C58.7,12.91,58,12.9,57.12,13Zm0-1.33c.94-.11,2,.29,2.51-.68a1.32,1.32,0,0,0-.1-1.22C58.91,9,58,9.29,57.15,9.28Z"/><path class="cls-1" d="M57.13,24.65v1.78h-1.6V19.55c1.38.07,2.73,0,4,.23a2.27,2.27,0,0,1,1.9,2.5,2.33,2.33,0,0,1-2.13,2.24C58.63,24.62,57.91,24.61,57.13,24.65Zm0-1.31c.65-.05,1.24-.05,1.82-.15a1.1,1.1,0,0,0,0-2.13,18.31,18.31,0,0,0-1.85-.13Z"/><path class="cls-1" d="M64.45,25.15h3.6v1.28H62.84V19.65h5.1v1.26h-3.5V22.4h3.12v1.2H64.45Z"/><path class="cls-1" d="M123.3,38.05c-2,.82-2.47-1-3.41-2.06a15.31,15.31,0,0,0-1,1.46,1.27,1.27,0,0,1-1.46.74c-.26,0-.53,0-1,0,.67-1,1.22-1.85,1.87-2.66a1.12,1.12,0,0,0,0-1.66c-.62-.75-1.11-1.59-1.66-2.4,1.89-.82,2.34.79,3.18,1.88a6.32,6.32,0,0,0,.71-1c.49-1.15,1.4-1.15,2.55-.93-.58.85-1.1,1.69-1.71,2.45a1,1,0,0,0,0,1.54C122.11,36.24,122.69,37.17,123.3,38.05Z"/><path class="cls-1" d="M70.26,38.18V31.35h1.56v2.21c.67,0,1.29,0,1.9,0,1.91.08,2.84,1.29,2.34,3a2.26,2.26,0,0,1-2.22,1.58C72.67,38.22,71.5,38.18,70.26,38.18ZM71.87,37h1a5.76,5.76,0,0,0,.59,0,1.1,1.1,0,0,0,1.07-1.13,1,1,0,0,0-1-1c-.56,0-1.13,0-1.71,0Z"/><path class="cls-1" d="M53.48,31.39l-2.2,3.26,2.21,3.4c-1.24.38-1.71.22-2.34-.76a8.69,8.69,0,0,1-.72-1.14,1.1,1.1,0,0,0-1.54-.6v2.6H47.37V31.37h1.48V34c.78.27,1.27.11,1.6-.58a8.12,8.12,0,0,1,.69-1.07C51.9,31.18,51.9,31.18,53.48,31.39Z"/><path class="cls-1" d="M192.34,26.46h-1.65c.07-.2.1-.38.18-.55.85-1.91,1.72-3.81,2.54-5.74.22-.53.56-.59,1-.57s.83,0,1.07.54c.88,2.09,1.83,4.14,2.81,6.34a6.32,6.32,0,0,1-1.46,0c-.23-.06-.45-.43-.53-.7-.19-.59-.51-.86-1.14-.75a2,2,0,0,1-.6,0C193.43,24.85,192.44,25,192.34,26.46Zm1.09-2.7h2.06l-1-2.48Z"/><path class="cls-1" d="M176.59,38.19a9.4,9.4,0,0,0-1.07,0c-.42,0-.68-.1-.76-.51-.16-.85-.69-1.12-1.51-1a2.62,2.62,0,0,1-.74,0c-.91-.14-1.54.11-1.75,1.09,0,.16-.33.34-.52.37a7.72,7.72,0,0,1-1.19,0,3.29,3.29,0,0,1,.14-.51c.87-2,1.75-3.92,2.6-5.89a.73.73,0,0,1,.88-.48c.41.05.87-.17,1.13.43.88,2,1.81,4.06,2.71,6.09A2,2,0,0,1,176.59,38.19Zm-2.76-2.74-1-2.46-1,2.46Z"/><path class="cls-1" d="M93,36.36v1.77H91.4v-6.9a40.72,40.72,0,0,1,4.15.31,2.16,2.16,0,0,1,1.71,2.54,2.29,2.29,0,0,1-2.13,2.15C94.45,36.33,93.75,36.32,93,36.36ZM93,35c.92-.09,1.9.26,2.47-.63a1.32,1.32,0,0,0,0-1.22c-.62-.82-1.56-.47-2.42-.49Z"/><path class="cls-1" d="M146,7.94V9.19h-3.5v1.48h3.05v1.24h-3.05v1.56h3.63v1.25h-5.29V8.64c0-.22,0-.44.05-.7Z"/><path class="cls-1" d="M110.06,11.89v1.6h3.65v1.28h-5.28V8h5.16V9.2h-3.5v1.48h3.1v1.21Z"/><path class="cls-1" d="M106.89,38.18V31.36h1.57v2.21c.69,0,1.3,0,1.92,0,1.76.09,2.58,1,2.38,2.63a2.23,2.23,0,0,1-2.35,2C109.26,38.22,108.11,38.18,106.89,38.18Zm1.63-1.2c.58,0,1.1,0,1.61,0a1.08,1.08,0,0,0,1-1.15,1,1,0,0,0-1-1c-.54,0-1.08,0-1.67,0Z"/><path class="cls-1" d="M117,13v1.78h-1.57V7.84c1.35.07,2.67,0,4,.23a2.19,2.19,0,0,1,1.9,2.47,2.27,2.27,0,0,1-2.08,2.27C118.53,12.91,117.83,12.9,117,13Zm0-1.33c.92-.1,1.9.28,2.47-.62a1.34,1.34,0,0,0,0-1.23c-.62-.83-1.55-.46-2.43-.5Z"/><path class="cls-1" d="M69.23,25.89l.47-1.09a6.05,6.05,0,0,0,1.29.38,5.91,5.91,0,0,0,1.83-.13,1,1,0,0,0,.51-.83c0-.21-.45-.53-.72-.57a14.54,14.54,0,0,0-2,0V22.35a7.52,7.52,0,0,0,1.58,0,1.24,1.24,0,0,0,.87-.61c.15-.5-.31-.8-.76-.8-.77,0-1.55.1-2.46.18l-.43-1a4.77,4.77,0,0,1,4.21-.19c1.35.61,1.48,1.86.44,3A5.58,5.58,0,0,1,75,24.07a1.63,1.63,0,0,1-1,2.09A5.12,5.12,0,0,1,69.23,25.89Z"/><path class="cls-1" d="M120.1,24.45l.94.89a3.85,3.85,0,0,1-5.35.37,3.57,3.57,0,0,1-.25-5.05,3.91,3.91,0,0,1,5.63.09l-1,.94a2.24,2.24,0,0,0-2.23-.73,2.64,2.64,0,0,0-1.19.71,2.19,2.19,0,0,0,.13,2.94C117.61,25.44,118.79,25.4,120.1,24.45Z"/><path class="cls-1" d="M83.77,38.08,84.1,37A8,8,0,0,0,85,37c.69-.08.92-.52.6-1.13l-2.37-4.42c1.42-.35,1.6-.27,2.19.91l1.12,2.28.18.29L88,32.31c.59-1.14.6-1.14,2-.91-.11.23-.2.46-.32.67-.87,1.62-1.72,3.26-2.64,4.86A2.41,2.41,0,0,1,83.77,38.08Z"/><path class="cls-1" d="M54.4,31.31a6.09,6.09,0,0,1,1.23,0,1.2,1.2,0,0,1,.72.46c.55,1,1,2.05,1.59,3.17l1.27-2.49c.64-1.23.64-1.23,2.08-1.12a1.64,1.64,0,0,1-.12.41c-.91,1.7-1.8,3.4-2.74,5.08a2.44,2.44,0,0,1-3.38,1.23l.31-1c.08,0,.12-.09.16-.08.53,0,1.17.17,1.38-.41.12-.31-.16-.81-.35-1.18C55.87,34,55.16,32.74,54.4,31.31Z"/><path class="cls-1" d="M113.76,19.65v1.28h-2.13v5.51H110V21h-2.13V19.65Z"/><path class="cls-1" d="M78.46,32.66H76.33V31.37h5.86v1.27H80.1v5.49H78.46Z"/><path class="cls-1" d="M178.6,38.14V32.69h-2.13V31.35h5.88v1.29h-2.14v5.5Z"/><path class="cls-1" d="M139.69,26.44h-1.58V19.65h4.77v1.28h-3.19Z"/><path class="cls-1" d="M113.64,38.13V31.36h1.54v6.77Z"/></g></g></svg>