<svg xmlns="http://www.w3.org/2000/svg" viewBox="0 0 78.48 109.97"><defs><style>.cls-1{fill:#fff;}</style></defs><g id="Слой_2" data-name="Слой 2"><g id="Слой_1-2" data-name="Слой 1"><path class="cls-1" d="M36.8,56l.09-6.05c0-9.61,1.29-18.82,4.83-27.63,3.09-7.7,7.45-14.53,14.62-19,5.72-3.59,11.84-4.7,17.93-.77a9.3,9.3,0,0,1,1.83,14,7.16,7.16,0,0,1-9.7.4,5.9,5.9,0,0,1-1-8.33A6.25,6.25,0,0,1,72.54,6.2c-.76-2.57-2.65-3.07-4.72-3.2-4.49-.27-7.76,1.88-10.12,5.47-4.76,7.2-6.2,15.48-6.93,23.81-.64,7.4-.53,14.86-.74,22.29l-.11,6.13c0,7-.25,13-1.59,17.85-2,10.61-7,19.63-15.73,26.29A24.08,24.08,0,0,1,17,110C8.94,109.69,3.43,105.4.38,98a11.31,11.31,0,0,1,0-5.71,10.84,10.84,0,0,1,2.09-4.36s2-2.1,3.76-2.51c4.92-1.18,9.71.53,11.48,5.11a9.18,9.18,0,0,1-5.27,11.86c-.84.31-1.73.5-3.43,1,1.82,1.24,3,2.48,4.4,2.91,5.31,1.63,9.7-.42,13.51-4,5.4-5.11,7.9-11.77,8.58-18.86.89-9.22.89-18.52,1.32-27.79"/><rect class="cls-1" x="41.93" y="42.54" width="3.8" height="24.89" transform="translate(-20.72 82.88) rotate(-74.81)"/></g></g></svg>