<svg xmlns="http://www.w3.org/2000/svg" viewBox="0 0 37.22 38.48"><g id="Слой_2" data-name="Слой 2"><g id="Слой_1-2" data-name="Слой 1"><path d="M37.22,26.38V38.05l-.43.43H.42a1.55,1.55,0,0,0-.24-.27A.5.5,0,0,1,0,37.77c0-.71,0-1.42,0-2.14q0-10.11,0-20.24c0-.78,0-1.55,0-2.33,0-1.53.05-3.07.09-4.6a2.86,2.86,0,0,1,.1-.77A10.59,10.59,0,0,1,2.14,3.88,10.25,10.25,0,0,1,4.41,1.74a9.36,9.36,0,0,1,2-1.06A8.23,8.23,0,0,1,9.54,0H12.7l4.14,0a1.8,1.8,0,0,1,.46,0c.54.13,1.08.25,1.6.43a9.73,9.73,0,0,1,3.78,2.37A11.78,11.78,0,0,1,23.6,4,9.72,9.72,0,0,1,25.18,6.9a11.43,11.43,0,0,1,.48,2.91c0,.48.08,1,.08,1.44A6.46,6.46,0,0,0,26,13a6,6,0,0,0,1.35,2.5,6.36,6.36,0,0,0,2.69,1.71,17.56,17.56,0,0,0,2.87.66,4.63,4.63,0,0,1,2.62,1.34,4.83,4.83,0,0,1,1.05,1.34,3.79,3.79,0,0,1,.4,1,17,17,0,0,1,.17,2c0,.86,0,1.72,0,2.58C37.18,26.25,37.21,26.32,37.22,26.38ZM1.32,25H35.88a.25.25,0,0,0,0-.07c0-.81,0-1.63,0-2.44a2.87,2.87,0,0,0-.17-1,3.41,3.41,0,0,0-2.49-2.26c-.79-.2-1.61-.34-2.41-.52A8.84,8.84,0,0,1,28,17.6a8.12,8.12,0,0,1-1.72-1.49,6.6,6.6,0,0,1-1.13-1.82,7.59,7.59,0,0,1-.59-2.35c-.05-.69-.1-1.38-.16-2.07,0-.48-.05-1-.12-1.43a8.53,8.53,0,0,0-1.06-2.93,8.24,8.24,0,0,0-1.92-2.28A8.41,8.41,0,0,0,19,1.9a8,8,0,0,0-3-.62q-3.32,0-6.65,0A7.25,7.25,0,0,0,8,1.5a8.08,8.08,0,0,0-2.53,1A8,8,0,0,0,3.31,4.34a8.72,8.72,0,0,0-1.22,2,8.53,8.53,0,0,0-.73,3c0,.58,0,1.17,0,1.76,0,4.57,0,9.14,0,13.71ZM32.08,37.19h3.8V26.31H33.36V34a.71.71,0,0,1-.53.67c-.24,0-.5,0-.75.06ZM3.85,26.31H1.33V37.18H5.14v-2.5a3.61,3.61,0,0,1-.75-.07,1.22,1.22,0,0,1-.49-.33c-.06-.06,0-.22,0-.33V26.31Zm26.94,8.35h-.58a.8.8,0,0,1-.64-.31A.7.7,0,0,1,29.5,34V26.31H28.26V34a.33.33,0,0,1,0,.2.92.92,0,0,1-.79.42H27v2.52h3.81Zm-20.55,0c-.26,0-.5,0-.74-.06A.69.69,0,0,1,9,33.94V26.31H7.72v7.81a.35.35,0,0,1,0,.21.88.88,0,0,1-.69.33H6.43v2.52h3.81Zm3.86-8.37H12.91c0,.06,0,.11,0,.16q0,3.57,0,7.12a3.09,3.09,0,0,1-.08.61c-.06.31-.16.39-.47.42l-.69.06v2.5h3.72V34.66h-.5a1,1,0,0,1-.65-.31c-.14-.12-.08-.28-.08-.42,0-2.45,0-4.91,0-7.36Zm11.5,8.37-.72-.06a.43.43,0,0,1-.44-.35,2.17,2.17,0,0,1-.08-.51c0-.57,0-1.13,0-1.7,0-1.84,0-3.68,0-5.52v-.23h-1.2v7.76a.38.38,0,0,1,0,.22.9.9,0,0,1-.74.37h-.46v2.52H25.6ZM18,26.31v4.63C18,32,18,33.1,18,34.17a.34.34,0,0,1-.09.22.92.92,0,0,1-.68.27h-.43v2.52h3.69V34.7a6.4,6.4,0,0,1-.8-.12c-.18-.06-.39-.16-.4-.4,0-.69,0-1.39,0-2.09V26.31Z"/></g></g></svg>