<svg xmlns="http://www.w3.org/2000/svg" viewBox="0 0 178.5 178.5"><defs><style>.cls-1{fill:#fff;}</style></defs><g id="Слой_2" data-name="Слой 2"><g id="Слой_1-2" data-name="Слой 1"><path class="cls-1" d="M131.23,6.3a41,41,0,0,1,41,41v84a41,41,0,0,1-41,41h-84a41,41,0,0,1-41-41v-84a41,41,0,0,1,41-41h84m0-6.3h-84A47.41,47.41,0,0,0,0,47.27v84A47.41,47.41,0,0,0,47.27,178.5h84a47.41,47.41,0,0,0,47.27-47.27v-84A47.41,47.41,0,0,0,131.23,0Z"/><path class="cls-1" d="M47.65,141.07H45.08l-.35,1.2H42.42L45.17,135h2.46l2.75,7.31H48Zm-.47-1.59-.81-2.62-.8,2.62Z"/><path class="cls-1" d="M57.75,142.27H55.2l-.88-1.89a3.22,3.22,0,0,0-.49-.83.65.65,0,0,0-.48-.17v2.89H51.1V135h2.25v2.81a.61.61,0,0,0,.46-.21,4.91,4.91,0,0,0,.51-1.12,3.45,3.45,0,0,1,.52-1,1.45,1.45,0,0,1,.84-.42,9,9,0,0,1,1.83-.13v1.54H57.4a1.36,1.36,0,0,0-.86.22,1.54,1.54,0,0,0-.46.71,2.51,2.51,0,0,1-.39.74,1.29,1.29,0,0,1-.56.38,2,2,0,0,1,.85.55,5.29,5.29,0,0,1,.77,1.22Z"/><path class="cls-1" d="M63.05,141.07H60.49l-.36,1.2H57.82L60.57,135H63l2.75,7.31H63.42Zm-.47-1.59-.81-2.62L61,139.48Z"/><path class="cls-1" d="M74.17,143.86H72.35v-1.59H67.68v1.59H65.87v-3.27h.75a11.91,11.91,0,0,0,.63-4V135h6.13v5.63h.79Zm-3-3.27v-3.83H69.31v.09a17.25,17.25,0,0,1-.51,3.74Z"/><path class="cls-1" d="M75.05,135h6.06v1.56H77.32v1.16h3.52v1.5H77.32v1.44h3.9v1.65H75.05Z"/><path class="cls-1" d="M82.41,135h3l1.15,4.45L87.67,135h3v7.31H88.79V136.7l-1.43,5.57H85.69l-1.43-5.57v5.57H82.41Z"/><path class="cls-1" d="M99.08,135v7.31H97v-4l-2.73,4H92.08V135h2.13v4L97,135Z"/><path class="cls-1" d="M107.31,142.27h-2.26v-2.72a4,4,0,0,1-2,.58,2.61,2.61,0,0,1-1.84-.66,2.36,2.36,0,0,1-.73-1.82V135h2.26v2.25a1.2,1.2,0,0,0,.26.82.93.93,0,0,0,.73.29,1.53,1.53,0,0,0,1.29-.53V135h2.26Z"/><path class="cls-1" d="M108.8,135h6v1.56h-3.79v1.16h3.52v1.5h-3.52v1.44H115v1.65H108.8Z"/><path class="cls-1" d="M121.05,139.28l2,.6a3.56,3.56,0,0,1-.63,1.39,2.72,2.72,0,0,1-1.06.84,4,4,0,0,1-1.62.29,4.69,4.69,0,0,1-2-.35,3.07,3.07,0,0,1-1.3-1.22,4.07,4.07,0,0,1-.55-2.23,3.81,3.81,0,0,1,1-2.79,3.69,3.69,0,0,1,2.73-1,3.76,3.76,0,0,1,2.18.55,3.39,3.39,0,0,1,1.17,1.72l-2,.44a1.82,1.82,0,0,0-.22-.48,1.28,1.28,0,0,0-.47-.4,1.25,1.25,0,0,0-.61-.14,1.33,1.33,0,0,0-1.18.61,2.61,2.61,0,0,0-.31,1.44,2.7,2.7,0,0,0,.37,1.67,1.47,1.47,0,0,0,2,.09A2.32,2.32,0,0,0,121.05,139.28Z"/><path class="cls-1" d="M130.78,142.27h-2.55l-.88-1.89a3.22,3.22,0,0,0-.49-.83.65.65,0,0,0-.48-.17v2.89h-2.25V135h2.25v2.81a.61.61,0,0,0,.46-.21,4.91,4.91,0,0,0,.51-1.12,3.45,3.45,0,0,1,.52-1,1.45,1.45,0,0,1,.84-.42,9,9,0,0,1,1.83-.13v1.54h-.11a1.36,1.36,0,0,0-.86.22,1.54,1.54,0,0,0-.46.71,2.51,2.51,0,0,1-.39.74,1.29,1.29,0,0,1-.56.38,2,2,0,0,1,.85.55,5.29,5.29,0,0,1,.77,1.22Z"/><path class="cls-1" d="M138.58,135v7.31h-2.12v-4l-2.74,4h-2.13V135h2.13v4l2.75-4Z"/><path class="cls-1" d="M147.09,135v7.31H145v-4l-2.74,4H140.1V135h2.13v4l2.75-4Zm-1.65-1.8a1.55,1.55,0,0,1-.61,1,1.87,1.87,0,0,1-1.19.39,1.92,1.92,0,0,1-1.2-.39,1.56,1.56,0,0,1-.6-1h.87a.86.86,0,0,0,.91.62.89.89,0,0,0,.95-.62Z"/><path class="cls-1" d="M43.16,147.55h4.23a2.31,2.31,0,0,1,1.62.53,1.69,1.69,0,0,1,.57,1.3,1.64,1.64,0,0,1-.41,1.11,1.85,1.85,0,0,1-.79.49,2,2,0,0,1,1.16.65,1.78,1.78,0,0,1,.38,1.16,1.94,1.94,0,0,1-.27,1,2.07,2.07,0,0,1-.72.72,2.41,2.41,0,0,1-.86.24c-.51.06-.85.1-1,.1h-3.9Zm2.28,2.87h1a1.11,1.11,0,0,0,.73-.18.66.66,0,0,0,.21-.53.61.61,0,0,0-.21-.49,1.08,1.08,0,0,0-.72-.18h-1Zm0,2.88h1.15a1.24,1.24,0,0,0,.82-.21.7.7,0,0,0,.24-.56.64.64,0,0,0-.24-.52,1.31,1.31,0,0,0-.83-.2H45.44Z"/><path class="cls-1" d="M50.81,151.22a3.47,3.47,0,0,1,3.78-3.79,3.83,3.83,0,0,1,2.81,1,3.69,3.69,0,0,1,1,2.75,4.48,4.48,0,0,1-.43,2.1,3.08,3.08,0,0,1-1.25,1.28,4.15,4.15,0,0,1-2,.45,4.71,4.71,0,0,1-2-.39,3,3,0,0,1-1.31-1.25A4.1,4.1,0,0,1,50.81,151.22Zm2.26,0a2.5,2.5,0,0,0,.41,1.59,1.57,1.57,0,0,0,2.25,0,2.7,2.7,0,0,0,.4-1.7,2.25,2.25,0,0,0-.42-1.51,1.4,1.4,0,0,0-1.13-.48,1.34,1.34,0,0,0-1.09.49A2.42,2.42,0,0,0,53.07,151.23Z"/><path class="cls-1" d="M66.26,154.87H63.71L62.83,153a3.16,3.16,0,0,0-.49-.84.65.65,0,0,0-.48-.17v2.9H59.61v-7.32h2.25v2.81a.61.61,0,0,0,.46-.21,5,5,0,0,0,.51-1.11,3.18,3.18,0,0,1,.52-1,1.52,1.52,0,0,1,.84-.43A9,9,0,0,1,66,147.5v1.55h-.11a1.36,1.36,0,0,0-.86.22,1.49,1.49,0,0,0-.46.71,2.44,2.44,0,0,1-.39.73,1.4,1.4,0,0,1-.56.39,2,2,0,0,1,.85.55,5.29,5.29,0,0,1,.77,1.22Z"/><path class="cls-1" d="M71.56,153.66H69l-.35,1.21H66.33l2.75-7.32h2.46l2.75,7.32H71.93Zm-.47-1.58-.81-2.63-.79,2.63Z"/><path class="cls-1" d="M81.73,154.87H79.47v-5.52H77.7v2.25a11,11,0,0,1-.14,2,1.39,1.39,0,0,1-.69,1,3.67,3.67,0,0,1-1.75.31,5.61,5.61,0,0,1-.85-.08v-1.48h.34a.85.85,0,0,0,.65-.21,1.06,1.06,0,0,0,.19-.74v-4.84h6.28Z"/><rect class="cls-1" x="46.87" y="56.57" width="6.94" height="30.01"/><rect class="cls-1" x="124.64" y="56.57" width="6.94" height="30.01"/><rect class="cls-1" x="60.44" y="38.72" width="6.94" height="69.52"/><rect class="cls-1" x="73.86" y="56.57" width="6.94" height="43.31"/><rect class="cls-1" x="87.74" y="45.75" width="6.94" height="60.59"/><rect class="cls-1" x="100.71" y="30.36" width="6.94" height="89.27"/><rect class="cls-1" x="114.29" y="67.59" width="6.94" height="38.75"/></g></g></svg>