<svg xmlns="http://www.w3.org/2000/svg" viewBox="0 0 178.5 178.5"><defs><style>.cls-1,.cls-2{fill:#fff;}.cls-2{font-size:10.22px;font-family:Arial-Black, Arial;font-weight:800;}</style></defs><g id="Слой_2" data-name="Слой 2"><g id="Слой_1-2" data-name="Слой 1"><path class="cls-1" d="M131.23,6.3a41,41,0,0,1,41,41v84a41,41,0,0,1-41,41h-84a41,41,0,0,1-41-41v-84a41,41,0,0,1,41-41h84m0-6.3h-84A47.41,47.41,0,0,0,0,47.27v84A47.41,47.41,0,0,0,47.27,178.5h84a47.41,47.41,0,0,0,47.27-47.27v-84A47.41,47.41,0,0,0,131.23,0Z"/><text class="cls-2" transform="translate(42.4 142.27)">ДУХОВЫЕ <tspan x="0" y="12.59">ИНСТРУМЕНТЫ</tspan></text><path class="cls-1" d="M46.51,92.48c22.57,3.69,42,13.56,61,26-.33-.22.9-2.86.53-3.1-19-12.43-38.43-22.29-61-26,0,0-.55,3.1-.53,3.1Z"/><path class="cls-1" d="M46.51,62.58c22.57-3.68,42-13.55,61-26,.61-.4-.05-2.73.53-3.11-19,12.43-38.43,22.29-61,26-.36.06-.22,3.05-.53,3.1Z"/><path class="cls-1" d="M113.63,32.33C99.41,32.33,87.87,51.87,87.87,76s11.54,43.65,25.76,43.65S139.39,100.09,139.39,76,127.86,32.33,113.63,32.33Zm2.62,84.58C106,116.91,97.74,98.58,97.74,76S106,35.05,116.25,35.05s18.5,18.33,18.5,40.93S126.47,116.91,116.25,116.91Z"/></g></g></svg>