<svg xmlns="http://www.w3.org/2000/svg" viewBox="0 0 178.5 178.5"><defs><style>.cls-1{fill:#fff;}</style></defs><g id="Слой_2" data-name="Слой 2"><g id="Слой_1-2" data-name="Слой 1"><path class="cls-1" d="M131.23,6.3a41,41,0,0,1,41,41v84a41,41,0,0,1-41,41h-84a41,41,0,0,1-41-41v-84a41,41,0,0,1,41-41h84m0-6.3h-84A47.41,47.41,0,0,0,0,47.27v84A47.41,47.41,0,0,0,47.27,178.5h84a47.41,47.41,0,0,0,47.27-47.27v-84A47.41,47.41,0,0,0,131.23,0Z"/><path class="cls-1" d="M42.88,136.68a3.41,3.41,0,0,1,3.37-1.84,3.85,3.85,0,0,1,2.82,1,3.72,3.72,0,0,1,1,2.76,3.89,3.89,0,0,1-1,2.84,3.66,3.66,0,0,1-2.73,1,4.05,4.05,0,0,1-2.44-.63,3.25,3.25,0,0,1-1.19-1.62l2.12-.58a1.36,1.36,0,0,0,1.42,1.13,1.4,1.4,0,0,0,1.49-1.4H45.54v-1.36h2.22a1.43,1.43,0,0,0-1.51-1.41,1.3,1.3,0,0,0-1.33.92Z"/><path class="cls-1" d="M56.15,139.28l2,.6a3.56,3.56,0,0,1-.63,1.39,2.72,2.72,0,0,1-1.06.84,4,4,0,0,1-1.62.29,4.69,4.69,0,0,1-2-.35,3.07,3.07,0,0,1-1.3-1.22A4.07,4.07,0,0,1,51,138.6a3.81,3.81,0,0,1,1-2.79,3.69,3.69,0,0,1,2.73-1,3.74,3.74,0,0,1,2.18.55,3.33,3.33,0,0,1,1.17,1.72l-2,.44a1.82,1.82,0,0,0-.22-.48,1.2,1.2,0,0,0-.47-.4,1.22,1.22,0,0,0-.61-.14,1.33,1.33,0,0,0-1.18.61,2.7,2.7,0,0,0-.31,1.44,2.77,2.77,0,0,0,.37,1.67,1.47,1.47,0,0,0,2,.09A2.32,2.32,0,0,0,56.15,139.28Z"/><path class="cls-1" d="M58.71,135h6.87v1.81h-2.3v5.5H61v-5.5H58.71Z"/><path class="cls-1" d="M66.6,135h3.75a2.62,2.62,0,0,1,1.84.58,2.2,2.2,0,0,1,.61,1.67,2.25,2.25,0,0,1-.67,1.73,2.9,2.9,0,0,1-2,.62H68.87v2.71H66.6Zm2.27,3.12h.55a1.46,1.46,0,0,0,.92-.23.74.74,0,0,0,.26-.58.82.82,0,0,0-.23-.58,1.18,1.18,0,0,0-.86-.24h-.64Z"/><path class="cls-1" d="M78.48,141.07H75.91l-.35,1.2H73.25L76,135h2.46l2.75,7.31H78.84ZM78,139.48l-.81-2.62-.8,2.62Z"/><path class="cls-1" d="M89.6,143.86H87.78v-1.59H83.11v1.59H81.3v-3.27h.75a11.91,11.91,0,0,0,.63-4V135h6.13v5.63h.79Zm-3-3.27v-3.83H84.74v.09a16.74,16.74,0,0,1-.52,3.74Z"/><path class="cls-1" d="M90.5,135h2.26v2.56h2.47V135H97.5v7.31H95.23v-3H92.76v3H90.5Z"/><path class="cls-1" d="M98.71,138.62a4,4,0,0,1,6.59-2.8,3.67,3.67,0,0,1,1,2.74,4.43,4.43,0,0,1-.43,2.1,3,3,0,0,1-1.25,1.28,4,4,0,0,1-2,.46,4.57,4.57,0,0,1-2-.4,3,3,0,0,1-1.31-1.24A4.11,4.11,0,0,1,98.71,138.62Zm2.26,0a2.47,2.47,0,0,0,.41,1.59,1.55,1.55,0,0,0,2.25,0,2.66,2.66,0,0,0,.4-1.7,2.25,2.25,0,0,0-.42-1.51,1.43,1.43,0,0,0-1.13-.47,1.36,1.36,0,0,0-1.09.48A2.43,2.43,0,0,0,101,138.63Z"/><path class="cls-1" d="M107.5,135h6.06v1.56h-3.79v1.16h3.51v1.5h-3.51v1.44h3.9v1.65H107.5Z"/><path class="cls-1" d="M43.16,147.55h2.26v2.56h2.47v-2.56h2.27v7.32H47.89v-3H45.42v3H43.16Z"/><path class="cls-1" d="M56.16,153.66H53.59l-.35,1.21H50.93l2.75-7.32h2.46l2.75,7.32H56.52Zm-.47-1.58-.81-2.63-.8,2.63Z"/><path class="cls-1" d="M66.61,154.87H64.36v-5.52H61.87v5.52H59.62v-7.32h7Z"/><path class="cls-1" d="M68.11,147.55h3.75a2.57,2.57,0,0,1,1.84.59,2.17,2.17,0,0,1,.61,1.66,2.27,2.27,0,0,1-.66,1.73,2.9,2.9,0,0,1-2,.62H70.38v2.72H68.11Zm2.27,3.12h.55a1.44,1.44,0,0,0,.92-.22.82.82,0,0,0,0-1.17A1.18,1.18,0,0,0,71,149h-.64Z"/><path class="cls-1" d="M80,153.66H77.42l-.35,1.21H74.76l2.75-7.32H80l2.75,7.32H80.36Zm-.47-1.58-.81-2.63-.79,2.63Z"/><path class="cls-1" d="M83.45,147.55h4.22a2.32,2.32,0,0,1,1.63.53,1.68,1.68,0,0,1,.56,1.3,1.63,1.63,0,0,1-.4,1.11,1.85,1.85,0,0,1-.79.49,2,2,0,0,1,1.16.65,1.77,1.77,0,0,1,.37,1.16,1.94,1.94,0,0,1-.26,1,2.07,2.07,0,0,1-.72.72,2.41,2.41,0,0,1-.86.24c-.51.06-.85.1-1,.1h-3.9Zm2.27,2.87h1a1.11,1.11,0,0,0,.73-.18.66.66,0,0,0,.21-.53.61.61,0,0,0-.21-.49,1.1,1.1,0,0,0-.72-.18h-1Zm0,2.88h1.16a1.24,1.24,0,0,0,.82-.21.7.7,0,0,0,.24-.56.64.64,0,0,0-.24-.52,1.32,1.32,0,0,0-.83-.2H85.72Z"/><path class="cls-1" d="M98.11,154.87H95.85v-5.52H94.08v2.25a10.05,10.05,0,0,1-.15,2,1.39,1.39,0,0,1-.69,1,3.62,3.62,0,0,1-1.74.31,5.61,5.61,0,0,1-.85-.08v-1.48H91a.86.86,0,0,0,.65-.21,1.12,1.12,0,0,0,.19-.74v-4.84h6.28Z"/><path class="cls-1" d="M99.6,147.55h6.05v1.57h-3.79v1.16h3.52v1.49h-3.52v1.44h3.9v1.66H99.6Z"/><path class="cls-1" d="M107,147.55h2.26v2.56h2.47v-2.56H114v7.32h-2.27v-3h-2.47v3H107Z"/><path class="cls-1" d="M122.49,147.55v7.32h-2.13v-4l-2.73,4h-2.14v-7.32h2.13v4l2.75-4Z"/><path class="cls-1" d="M124,147.55h6.06v1.57h-3.79v1.16h3.51v1.49h-3.51v1.44h3.9v1.66H124Z"/><path class="cls-1" d="M89.78,105.26a29.24,29.24,0,0,1-29.2-29.21V59h5v17.1a24.18,24.18,0,1,0,48.35,0V59h5v17.1A29.24,29.24,0,0,1,89.78,105.26Z"/><circle class="cls-1" cx="60.58" cy="63.77" r="4.81"/><circle class="cls-1" cx="118.38" cy="63.3" r="4.35"/><rect class="cls-1" x="83.32" y="102.07" width="12.92" height="12.92"/><rect class="cls-1" x="78.11" y="113.99" width="23.35" height="5.67"/><path class="cls-1" d="M89.78,26.08A16,16,0,0,0,73.84,42V75.88a15.95,15.95,0,1,0,31.89,0V42A16,16,0,0,0,89.78,26.08Zm11,46.9A10.94,10.94,0,0,1,89.91,83.89h0A10.94,10.94,0,0,1,79,73V38.58A10.94,10.94,0,0,1,89.91,27.67h0a10.94,10.94,0,0,1,10.91,10.91Z"/></g></g></svg>