<svg xmlns="http://www.w3.org/2000/svg" viewBox="0 0 178.5 178.5"><defs><style>.cls-1{fill:#fff;}</style></defs><g id="Слой_2" data-name="Слой 2"><g id="Слой_1-2" data-name="Слой 1"><path class="cls-1" d="M131.23,6.3a41,41,0,0,1,41,41v84a41,41,0,0,1-41,41h-84a41,41,0,0,1-41-41v-84a41,41,0,0,1,41-41h84m0-6.3h-84A47.41,47.41,0,0,0,0,47.27v84A47.41,47.41,0,0,0,47.27,178.5h84a47.41,47.41,0,0,0,47.27-47.27v-84A47.41,47.41,0,0,0,131.23,0Z"/><path class="cls-1" d="M48.15,135.52q3.35.34,3.34,3t-3.34,3v.76h-2v-.78q-3.33-.28-3.33-3t3.33-3V135h2Zm-2,4.48v-3a1.48,1.48,0,0,0-.81.57,1.6,1.6,0,0,0-.31,1,1.46,1.46,0,0,0,.3.91A1.66,1.66,0,0,0,46.1,140Zm2,0a1.45,1.45,0,0,0,.83-.55,1.52,1.52,0,0,0,.3-1,1.58,1.58,0,0,0-1.13-1.54Z"/><path class="cls-1" d="M52.31,138.62a4,4,0,0,1,6.58-2.8,3.67,3.67,0,0,1,1,2.74,4.43,4.43,0,0,1-.43,2.1,3,3,0,0,1-1.25,1.28,4,4,0,0,1-2,.46,4.6,4.6,0,0,1-2.05-.4,3.12,3.12,0,0,1-1.31-1.24A4.11,4.11,0,0,1,52.31,138.62Zm2.26,0a2.41,2.41,0,0,0,.41,1.59,1.39,1.39,0,0,0,1.12.49,1.37,1.37,0,0,0,1.12-.48,2.66,2.66,0,0,0,.4-1.7,2.31,2.31,0,0,0-.41-1.51,1.46,1.46,0,0,0-1.13-.47A1.38,1.38,0,0,0,55,137,2.44,2.44,0,0,0,54.57,138.63Z"/><path class="cls-1" d="M67.82,142.27H65.56v-5.51H63.79V139a10.85,10.85,0,0,1-.14,2,1.39,1.39,0,0,1-.69,1,3.81,3.81,0,0,1-1.75.3,4.56,4.56,0,0,1-.85-.08v-1.48h.34a.89.89,0,0,0,.65-.2,1.14,1.14,0,0,0,.19-.74V135h6.28Z"/><path class="cls-1" d="M71.58,137.78h1.21a4.21,4.21,0,0,1,2.46.58,2.1,2.1,0,0,1,.8,1.83,1.81,1.81,0,0,1-.73,1.55,3.63,3.63,0,0,1-2.12.53H69.32V135h2.26Zm0,2.92h1.16c.7,0,1.06-.25,1.06-.77s-.36-.67-1.06-.67H71.58Z"/><path class="cls-1" d="M83.87,142.27H81.32l-.88-1.89a3.64,3.64,0,0,0-.48-.83.69.69,0,0,0-.48-.17v2.89H77.22V135h2.26v2.81a.6.6,0,0,0,.45-.21,5.24,5.24,0,0,0,.52-1.12,3.47,3.47,0,0,1,.51-1,1.55,1.55,0,0,1,.84-.43,10,10,0,0,1,1.83-.12v1.54h-.11a1.36,1.36,0,0,0-.86.22,1.62,1.62,0,0,0-.46.71,2.56,2.56,0,0,1-.38.73,1.32,1.32,0,0,1-.57.39,2,2,0,0,1,.85.55,5.27,5.27,0,0,1,.78,1.22Z"/><path class="cls-1" d="M91.4,142.27H89.14v-5.51H87.37V139a9.87,9.87,0,0,1-.15,2,1.35,1.35,0,0,1-.68,1,3.84,3.84,0,0,1-1.75.3,4.56,4.56,0,0,1-.85-.08v-1.48h.34a.9.9,0,0,0,.65-.2,1.14,1.14,0,0,0,.19-.74V135H91.4Z"/><path class="cls-1" d="M92.61,138.62a3.45,3.45,0,0,1,3.77-3.78,3.81,3.81,0,0,1,2.82,1,3.67,3.67,0,0,1,1,2.74,4.42,4.42,0,0,1-.44,2.1,3,3,0,0,1-1.24,1.28,4.08,4.08,0,0,1-2,.46,4.55,4.55,0,0,1-2-.4,3.14,3.14,0,0,1-1.32-1.24A4.21,4.21,0,0,1,92.61,138.62Zm2.26,0a2.47,2.47,0,0,0,.41,1.59,1.55,1.55,0,0,0,2.25,0,2.73,2.73,0,0,0,.4-1.7,2.25,2.25,0,0,0-.42-1.51,1.44,1.44,0,0,0-1.13-.47,1.38,1.38,0,0,0-1.1.48A2.5,2.5,0,0,0,94.87,138.63Z"/><path class="cls-1" d="M101.39,135h3.76a2.57,2.57,0,0,1,1.84.58,2.23,2.23,0,0,1,.61,1.66,2.26,2.26,0,0,1-.67,1.74,2.9,2.9,0,0,1-2,.62h-1.24v2.71h-2.27Zm2.27,3.12h.56a1.4,1.4,0,0,0,.91-.23.72.72,0,0,0,.27-.58.82.82,0,0,0-.23-.58,1.18,1.18,0,0,0-.86-.24h-.65Z"/><path class="cls-1" d="M108.79,135h2.26v2.56h2.47V135h2.27v7.31h-2.27v-3h-2.47v3h-2.26Z"/><path class="cls-1" d="M119.55,137.78h1.21a4.23,4.23,0,0,1,2.47.58,2.12,2.12,0,0,1,.8,1.83,1.81,1.81,0,0,1-.74,1.55,3.59,3.59,0,0,1-2.11.53H117.3V135h2.25Zm0,2.92h1.16c.71,0,1.06-.25,1.06-.77s-.35-.67-1.06-.67h-1.16Zm5-5.74h2.27v7.31h-2.27Z"/><path class="cls-1" d="M128.34,135h6v1.56H130.6v1.16h3.52v1.49H130.6v1.45h3.9v1.65h-6.16Z"/><path class="cls-1" d="M50.15,147.55v7.32H48v-4l-2.74,4H43.16v-7.32h2.13v4l2.75-4Z"/><path class="cls-1" d="M51.67,147.55h2.26v2.56H56.4v-2.56h2.27v7.32H56.4v-3H53.93v3H51.67Z"/><path class="cls-1" d="M65,151.87l2,.6a3.5,3.5,0,0,1-.63,1.39,2.65,2.65,0,0,1-1.06.85,4,4,0,0,1-1.62.28,4.71,4.71,0,0,1-2-.34,3.14,3.14,0,0,1-1.3-1.22,4.13,4.13,0,0,1-.55-2.24,3.81,3.81,0,0,1,1-2.79,3.69,3.69,0,0,1,2.73-1,3.76,3.76,0,0,1,2.18.56A3.32,3.32,0,0,1,67,149.7l-2,.45a1.63,1.63,0,0,0-.22-.49,1.26,1.26,0,0,0-.46-.4,1.37,1.37,0,0,0-.61-.14,1.34,1.34,0,0,0-1.18.62,2.57,2.57,0,0,0-.31,1.44,2.68,2.68,0,0,0,.37,1.66,1.25,1.25,0,0,0,1,.46,1.27,1.27,0,0,0,1-.37A2.23,2.23,0,0,0,65,151.87Z"/><path class="cls-1" d="M67.6,147.55h6.87v1.81h-2.3v5.51H69.91v-5.51H67.6Z"/><path class="cls-1" d="M75.48,147.55h3.76a2.57,2.57,0,0,1,1.84.59,2.17,2.17,0,0,1,.61,1.66,2.24,2.24,0,0,1-.67,1.73,2.85,2.85,0,0,1-2,.62H77.75v2.72H75.48Zm2.27,3.12h.56a1.4,1.4,0,0,0,.92-.23.74.74,0,0,0,.26-.58.82.82,0,0,0-.23-.58,1.18,1.18,0,0,0-.86-.24h-.65Z"/><path class="cls-1" d="M82.19,147.55h2.45l1,3,1-3H89l-2.4,5.65a6.77,6.77,0,0,1-.51,1,1.61,1.61,0,0,1-.65.55,2.63,2.63,0,0,1-1.19.22c-.26,0-.72,0-1.37-.11v-1.51q.57.06.84.06c.52,0,.84-.2,1-.59Z"/><path class="cls-1" d="M89.71,147.55h3L93.83,152,95,147.55h3v7.32H96.09v-5.58l-1.43,5.58H93l-1.42-5.58v5.58H89.71Z"/><path class="cls-1" d="M99.37,147.55h6.06v1.57h-3.79v1.16h3.51v1.49h-3.51v1.44h3.9v1.66H99.37Z"/><path class="cls-1" d="M106.76,147.55H109v2.56h2.47v-2.56h2.27v7.32h-2.27v-3H109v3h-2.26Z"/><path class="cls-1" d="M114.75,147.55h6.87v1.81h-2.31v5.51h-2.26v-5.51h-2.3Z"/><path class="cls-1" d="M124.91,150.37h1.2a4.22,4.22,0,0,1,2.47.59,2.12,2.12,0,0,1,.8,1.82,1.8,1.8,0,0,1-.74,1.55,3.52,3.52,0,0,1-2.11.54h-3.88v-7.32h2.26Zm0,2.93h1.15c.71,0,1.07-.26,1.07-.77s-.36-.68-1.07-.68h-1.15Zm5-5.75h2.27v7.32h-2.27Z"/><path class="cls-1" d="M89.11,59A34.84,34.84,0,0,1,63.56,47.78L67,44.65a30.09,30.09,0,0,0,44.49-.2l3.43,3.09A34.76,34.76,0,0,1,89.11,59Z"/><rect class="cls-1" x="86.89" y="64.21" width="4.72" height="51.87"/><rect class="cls-1" x="98.47" y="63.13" width="4.72" height="51.87" transform="translate(-14.35 19.54) rotate(-10.34)"/><rect class="cls-1" x="110.25" y="59.9" width="4.72" height="51.87" transform="translate(-23.97 48.47) rotate(-22.01)"/><rect class="cls-1" x="120.71" y="54.91" width="4.72" height="51.87" transform="translate(-24.18 80.44) rotate(-33.15)"/><rect class="cls-1" x="126.08" y="37.2" width="4.72" height="61.11" transform="translate(-8.05 117.33) rotate(-47.78)"/><rect class="cls-1" x="75.31" y="63.13" width="4.72" height="51.87" transform="translate(138.09 190.63) rotate(-169.66)"/><rect class="cls-1" x="63.46" y="59.9" width="4.72" height="51.87" transform="translate(94.66 190.09) rotate(-157.99)"/><rect class="cls-1" x="53.08" y="54.91" width="4.72" height="51.87" transform="translate(57.65 178.84) rotate(-146.85)"/><rect class="cls-1" x="47.71" y="37.2" width="4.72" height="61.11" transform="translate(33.53 150.37) rotate(-132.22)"/><circle class="cls-1" cx="63.17" cy="44.02" r="4.22"/><circle class="cls-1" cx="115.33" cy="44.02" r="4.22"/></g></g></svg>