<svg xmlns="http://www.w3.org/2000/svg" viewBox="0 0 178.5 178.5"><defs><style>.cls-1{fill:#fff;}</style></defs><g id="Слой_2" data-name="Слой 2"><g id="Слой_1-2" data-name="Слой 1"><path class="cls-1" d="M131.23,6.3a41,41,0,0,1,41,41v84a41,41,0,0,1-41,41h-84a41,41,0,0,1-41-41v-84a41,41,0,0,1,41-41h84m0-6.3h-84A47.41,47.41,0,0,0,0,47.27v84A47.41,47.41,0,0,0,47.27,178.5h84a47.41,47.41,0,0,0,47.27-47.27v-84A47.41,47.41,0,0,0,131.23,0Z"/><path class="cls-1" d="M43.16,135h2.26v2.56h2.47V135h2.27v7.31H47.89v-3H45.42v3H43.16Z"/><path class="cls-1" d="M56.16,141.07H53.59l-.35,1.2H50.93L53.68,135h2.46l2.75,7.31H56.52Zm-.47-1.59-.81-2.62-.8,2.62Z"/><path class="cls-1" d="M59.6,135h3.75a2.62,2.62,0,0,1,1.84.58,2.2,2.2,0,0,1,.61,1.67,2.28,2.28,0,0,1-.66,1.73,2.93,2.93,0,0,1-2,.62H61.87v2.71H59.6Zm2.27,3.12h.55a1.44,1.44,0,0,0,.92-.23.74.74,0,0,0,.26-.58.78.78,0,0,0-.23-.58,1.18,1.18,0,0,0-.86-.24h-.64Z"/><path class="cls-1" d="M66.7,138.62a4,4,0,0,1,6.59-2.8,3.67,3.67,0,0,1,1,2.74,4.55,4.55,0,0,1-.43,2.1,3.08,3.08,0,0,1-1.25,1.28,4,4,0,0,1-2,.46,4.57,4.57,0,0,1-2-.4,3.08,3.08,0,0,1-1.32-1.24A4.21,4.21,0,0,1,66.7,138.62Zm2.26,0a2.47,2.47,0,0,0,.41,1.59,1.55,1.55,0,0,0,2.25,0,2.73,2.73,0,0,0,.4-1.7A2.25,2.25,0,0,0,71.6,137a1.44,1.44,0,0,0-1.13-.47,1.4,1.4,0,0,0-1.1.48A2.5,2.5,0,0,0,69,138.63Z"/><path class="cls-1" d="M83.17,143.86H81.35v-1.59H76.68v1.59H74.86v-3.27h.75a11.66,11.66,0,0,0,.64-4V135h6.13v5.63h.79Zm-3-3.27v-3.83H78.3v.09a17.25,17.25,0,0,1-.51,3.74Z"/><path class="cls-1" d="M84.06,135h2.26v2.56h2.47V135h2.27v7.31H88.79v-3H86.32v3H84.06Z"/><path class="cls-1" d="M94.83,137.78H96a4.23,4.23,0,0,1,2.47.58,2.14,2.14,0,0,1,.8,1.83,1.81,1.81,0,0,1-.73,1.55,3.63,3.63,0,0,1-2.12.53H92.57V135h2.26Zm0,2.92H96c.71,0,1.07-.25,1.07-.77s-.36-.67-1.07-.67H94.83Zm5-5.74h2.26v7.31H99.86Z"/><path class="cls-1" d="M110.62,135v7.31h-2.13v-4l-2.74,4h-2.13V135h2.13v4l2.75-4Zm-1.66-1.8a1.51,1.51,0,0,1-.61,1,2,2,0,0,1-2.38,0,1.54,1.54,0,0,1-.61-1h.87a.86.86,0,0,0,.91.62.88.88,0,0,0,1-.62Z"/><path class="cls-1" d="M43.16,147.55h4.23a2.31,2.31,0,0,1,1.62.53,1.69,1.69,0,0,1,.57,1.3,1.64,1.64,0,0,1-.41,1.11,1.85,1.85,0,0,1-.79.49,2,2,0,0,1,1.16.65,1.78,1.78,0,0,1,.38,1.16,1.94,1.94,0,0,1-.27,1,2,2,0,0,1-.72.72,2.41,2.41,0,0,1-.86.24c-.51.06-.85.1-1,.1h-3.9Zm2.28,2.87h1a1.11,1.11,0,0,0,.73-.18.66.66,0,0,0,.21-.53.61.61,0,0,0-.21-.49,1.08,1.08,0,0,0-.72-.18h-1Zm0,2.88h1.15a1.24,1.24,0,0,0,.82-.21.7.7,0,0,0,.24-.56.64.64,0,0,0-.24-.52,1.31,1.31,0,0,0-.83-.2H45.44Z"/><path class="cls-1" d="M50.81,151.22a3.47,3.47,0,0,1,3.78-3.79,3.83,3.83,0,0,1,2.81,1,3.69,3.69,0,0,1,1,2.75,4.48,4.48,0,0,1-.43,2.1,3.08,3.08,0,0,1-1.25,1.28,4.15,4.15,0,0,1-2,.45,4.71,4.71,0,0,1-2-.39,3,3,0,0,1-1.31-1.25A4.1,4.1,0,0,1,50.81,151.22Zm2.26,0a2.5,2.5,0,0,0,.41,1.59,1.57,1.57,0,0,0,2.25,0,2.7,2.7,0,0,0,.4-1.7,2.25,2.25,0,0,0-.42-1.51,1.4,1.4,0,0,0-1.13-.48,1.34,1.34,0,0,0-1.09.49A2.42,2.42,0,0,0,53.07,151.23Z"/><path class="cls-1" d="M66.26,154.87H63.71L62.83,153a3.16,3.16,0,0,0-.49-.84.65.65,0,0,0-.48-.17v2.9H59.61v-7.32h2.25v2.81a.61.61,0,0,0,.46-.21,5.33,5.33,0,0,0,.52-1.11,3,3,0,0,1,.51-1,1.52,1.52,0,0,1,.84-.43A9,9,0,0,1,66,147.5v1.55h-.11a1.36,1.36,0,0,0-.86.22,1.49,1.49,0,0,0-.46.71,2.44,2.44,0,0,1-.39.73,1.4,1.4,0,0,1-.56.39,2,2,0,0,1,.85.55,5.29,5.29,0,0,1,.77,1.22Z"/><path class="cls-1" d="M71.56,153.66H69l-.36,1.21H66.33l2.75-7.32h2.46l2.75,7.32H71.93Zm-.47-1.58-.81-2.63-.79,2.63Z"/><path class="cls-1" d="M81.73,154.87H79.47v-5.52H77.7v2.25a11,11,0,0,1-.14,2,1.39,1.39,0,0,1-.69,1,3.67,3.67,0,0,1-1.75.31,5.61,5.61,0,0,1-.85-.08v-1.48h.34a.85.85,0,0,0,.65-.21,1.06,1.06,0,0,0,.19-.74v-4.84h6.28Z"/><rect class="cls-1" x="46.53" y="56.68" width="6.94" height="30.01"/><rect class="cls-1" x="124.3" y="56.68" width="6.94" height="30.01"/><rect class="cls-1" x="60.1" y="38.83" width="6.94" height="69.52"/><rect class="cls-1" x="73.53" y="56.68" width="6.94" height="43.31"/><rect class="cls-1" x="87.4" y="45.86" width="6.94" height="60.59"/><rect class="cls-1" x="100.37" y="30.47" width="6.94" height="89.27"/><rect class="cls-1" x="113.95" y="67.7" width="6.94" height="38.75"/></g></g></svg>