<svg xmlns="http://www.w3.org/2000/svg" viewBox="0 0 178.5 178.5"><defs><style>.cls-1{fill:#fff;}</style></defs><g id="Слой_2" data-name="Слой 2"><g id="Слой_1-2" data-name="Слой 1"><path class="cls-1" d="M131.23,6.3a41,41,0,0,1,41,41v84a41,41,0,0,1-41,41h-84a41,41,0,0,1-41-41v-84a41,41,0,0,1,41-41h84m0-6.3h-84A47.41,47.41,0,0,0,0,47.27v84A47.41,47.41,0,0,0,47.27,178.5h84a47.41,47.41,0,0,0,47.27-47.27v-84A47.41,47.41,0,0,0,131.23,0Z"/><path class="cls-1" d="M43.16,135h2.26v2.56h2.47V135h2.27v7.31H47.89v-3H45.42v3H43.16Z"/><path class="cls-1" d="M56.16,141.07H53.59l-.35,1.2H50.93L53.68,135h2.46l2.75,7.31H56.52Zm-.47-1.59-.81-2.62-.8,2.62Z"/><path class="cls-1" d="M59.6,135h3.75a2.62,2.62,0,0,1,1.84.58,2.2,2.2,0,0,1,.61,1.67,2.28,2.28,0,0,1-.66,1.73,2.93,2.93,0,0,1-2,.62H61.87v2.71H59.6Zm2.27,3.12h.55a1.44,1.44,0,0,0,.92-.23.74.74,0,0,0,.26-.58.78.78,0,0,0-.23-.58,1.18,1.18,0,0,0-.86-.24h-.64Z"/><path class="cls-1" d="M66.7,138.62a4,4,0,0,1,6.59-2.8,3.67,3.67,0,0,1,1,2.74,4.55,4.55,0,0,1-.43,2.1,3.08,3.08,0,0,1-1.25,1.28,4,4,0,0,1-2,.46,4.57,4.57,0,0,1-2-.4,3.08,3.08,0,0,1-1.32-1.24A4.21,4.21,0,0,1,66.7,138.62Zm2.26,0a2.47,2.47,0,0,0,.41,1.59,1.55,1.55,0,0,0,2.25,0,2.73,2.73,0,0,0,.4-1.7A2.25,2.25,0,0,0,71.6,137a1.44,1.44,0,0,0-1.13-.47,1.4,1.4,0,0,0-1.1.48A2.5,2.5,0,0,0,69,138.63Z"/><path class="cls-1" d="M83.17,143.86H81.35v-1.59H76.68v1.59H74.86v-3.27h.75a11.66,11.66,0,0,0,.64-4V135h6.13v5.63h.79Zm-3-3.27v-3.83H78.3v.09a17.25,17.25,0,0,1-.51,3.74Z"/><path class="cls-1" d="M84.06,135h2.26v2.56h2.47V135h2.27v7.31H88.79v-3H86.32v3H84.06Z"/><path class="cls-1" d="M94.83,137.78H96a4.23,4.23,0,0,1,2.47.58,2.14,2.14,0,0,1,.8,1.83,1.81,1.81,0,0,1-.73,1.55,3.63,3.63,0,0,1-2.12.53H92.57V135h2.26Zm0,2.92H96c.71,0,1.07-.25,1.07-.77s-.36-.67-1.07-.67H94.83Zm5-5.74h2.26v7.31H99.86Z"/><path class="cls-1" d="M103.61,135h6.06v1.56h-3.79v1.16h3.51v1.5h-3.51v1.44h3.9v1.65h-6.17Z"/><path class="cls-1" d="M50.15,147.55v7.32H48v-4l-2.74,4H43.16v-7.32h2.13v4l2.75-4Z"/><path class="cls-1" d="M51.67,147.55h2.26v2.56H56.4v-2.56h2.27v7.32H56.4v-3H53.93v3H51.67Z"/><path class="cls-1" d="M65,151.87l2,.6a3.5,3.5,0,0,1-.63,1.39,2.72,2.72,0,0,1-1.06.85,4,4,0,0,1-1.62.28,4.71,4.71,0,0,1-2-.34,3.14,3.14,0,0,1-1.3-1.22,4.11,4.11,0,0,1-.55-2.24,3.81,3.81,0,0,1,1-2.79,4.39,4.39,0,0,1,4.9-.41A3.27,3.27,0,0,1,67,149.7l-2,.45a1.63,1.63,0,0,0-.22-.49,1.26,1.26,0,0,0-.46-.4,1.37,1.37,0,0,0-.61-.14,1.34,1.34,0,0,0-1.18.62,2.57,2.57,0,0,0-.31,1.44,2.74,2.74,0,0,0,.37,1.67,1.45,1.45,0,0,0,2,.08A2.23,2.23,0,0,0,65,151.87Z"/><path class="cls-1" d="M67.6,147.55h6.87v1.81h-2.3v5.51H69.91v-5.51H67.6Z"/><path class="cls-1" d="M75.48,147.55h3.76a2.57,2.57,0,0,1,1.84.59,2.17,2.17,0,0,1,.61,1.66,2.24,2.24,0,0,1-.67,1.73,2.85,2.85,0,0,1-2,.62H77.75v2.72H75.48Zm2.27,3.12h.56a1.46,1.46,0,0,0,.92-.22.77.77,0,0,0,.26-.59.82.82,0,0,0-.23-.58,1.18,1.18,0,0,0-.86-.24h-.65Z"/><path class="cls-1" d="M82.19,147.55h2.45l1,3,1-3H89l-2.4,5.65a7.88,7.88,0,0,1-.51,1,1.61,1.61,0,0,1-.65.55,2.63,2.63,0,0,1-1.19.22c-.26,0-.72,0-1.37-.11v-1.51q.57.06.84.06c.52,0,.84-.2,1-.59Z"/><path class="cls-1" d="M89.71,147.55h3L93.83,152,95,147.55h3v7.32H96.08v-5.58l-1.42,5.58H93l-1.42-5.58v5.58H89.71Z"/><path class="cls-1" d="M99.37,147.55h6.06v1.57h-3.79v1.16h3.51v1.49h-3.51v1.44h3.9v1.66H99.37Z"/><path class="cls-1" d="M106.76,147.55H109v2.56h2.47v-2.56h2.27v7.32h-2.27v-3H109v3h-2.26Z"/><path class="cls-1" d="M114.75,147.55h6.87v1.81h-2.31v5.51h-2.26v-5.51h-2.3Z"/><path class="cls-1" d="M124.91,150.37h1.2a4.22,4.22,0,0,1,2.47.59,2.12,2.12,0,0,1,.8,1.82,1.8,1.8,0,0,1-.74,1.55,3.52,3.52,0,0,1-2.11.54h-3.88v-7.32h2.26Zm0,2.93h1.15c.71,0,1.07-.26,1.07-.77s-.36-.68-1.07-.68h-1.15Zm5-5.75h2.27v7.32h-2.27Z"/><rect class="cls-1" x="70.05" y="16.68" width="5" height="102.22"/><rect class="cls-1" x="85.18" y="16.68" width="5" height="102.22"/><rect class="cls-1" x="100.3" y="16.68" width="5" height="102.22"/><rect class="cls-1" x="50.67" y="115.62" width="74.02" height="10.1"/><path class="cls-1" d="M87.68,108a38.64,38.64,0,1,1,38.63-38.63A38.67,38.67,0,0,1,87.68,108Zm0-73.49a34.86,34.86,0,1,0,34.85,34.86A34.89,34.89,0,0,0,87.68,34.55Z"/></g></g></svg>