<svg xmlns="http://www.w3.org/2000/svg" viewBox="0 0 178.5 178.5"><defs><style>.cls-1{fill:#fff;}</style></defs><g id="Слой_2" data-name="Слой 2"><g id="Слой_1-2" data-name="Слой 1"><path class="cls-1" d="M131.23,6.3a41,41,0,0,1,41,41v84a41,41,0,0,1-41,41h-84a41,41,0,0,1-41-41v-84a41,41,0,0,1,41-41h84m0-6.3h-84A47.41,47.41,0,0,0,0,47.27v84A47.41,47.41,0,0,0,47.27,178.5h84a47.41,47.41,0,0,0,47.27-47.27v-84A47.41,47.41,0,0,0,131.23,0Z"/><path class="cls-1" d="M87.75,71.13l.08-5.44c0-8.62,1.15-16.9,4.33-24.8,2.78-6.92,6.7-13,13.13-17.09,5.14-3.22,10.64-4.21,16.1-.68A8.36,8.36,0,0,1,123,35.67a6.44,6.44,0,0,1-8.72.35,5.28,5.28,0,0,1-.87-7.47,5.6,5.6,0,0,1,6.39-2.1c-.68-2.31-2.38-2.75-4.24-2.87-4-.24-7,1.69-9.09,4.91-4.27,6.47-5.57,13.9-6.22,21.39-.57,6.64-.47,13.34-.66,20l-.1,5.5c0,6.26-.23,11.65-1.43,16C96.27,101,91.83,109.05,84,115a21.64,21.64,0,0,1-14,4.59c-7.23-.24-12.18-4.09-14.92-10.78a10.29,10.29,0,0,1,0-5.13,9.79,9.79,0,0,1,1.88-3.91,9.34,9.34,0,0,1,3.38-2.26c4.42-1.05,8.71.48,10.3,4.59a8.24,8.24,0,0,1-4.73,10.65c-.75.29-1.56.45-3.08.88,1.63,1.11,2.68,2.22,3.95,2.61,4.77,1.46,8.71-.38,12.13-3.61,4.86-4.59,7.09-10.57,7.71-16.93.8-8.28.8-16.64,1.19-25"/><rect class="cls-1" x="92.35" y="59.08" width="3.42" height="22.35" transform="translate(1.61 142.62) rotate(-74.81)"/><path class="cls-1" d="M48,139.28l2,.6a3.56,3.56,0,0,1-.63,1.39,2.72,2.72,0,0,1-1.06.84,4,4,0,0,1-1.62.29,4.69,4.69,0,0,1-1.95-.35,3.07,3.07,0,0,1-1.3-1.22,4.07,4.07,0,0,1-.55-2.23,3.81,3.81,0,0,1,1-2.79,3.69,3.69,0,0,1,2.73-1,3.76,3.76,0,0,1,2.18.55,3.39,3.39,0,0,1,1.17,1.72l-2,.44a2.1,2.1,0,0,0-.22-.49,1.26,1.26,0,0,0-.47-.39,1.25,1.25,0,0,0-.61-.14,1.33,1.33,0,0,0-1.18.61,2.7,2.7,0,0,0-.31,1.44,2.79,2.79,0,0,0,.37,1.67,1.47,1.47,0,0,0,2,.09A2.32,2.32,0,0,0,48,139.28Z"/><path class="cls-1" d="M50.58,135h6.87v1.81h-2.3v5.5H52.89v-5.5H50.58Z"/><path class="cls-1" d="M58.47,135h3.75a2.57,2.57,0,0,1,1.84.58,2.19,2.19,0,0,1,.61,1.66,2.26,2.26,0,0,1-.67,1.74,2.9,2.9,0,0,1-2,.62H60.73v2.71H58.47Zm2.26,3.12h.56a1.46,1.46,0,0,0,.92-.23.74.74,0,0,0,.26-.58.82.82,0,0,0-.23-.58,1.18,1.18,0,0,0-.86-.24h-.65Z"/><path class="cls-1" d="M65.17,135h2.45l1,3,1-3h2.3l-2.4,5.65a7.92,7.92,0,0,1-.51,1,1.62,1.62,0,0,1-.65.55,2.74,2.74,0,0,1-1.19.22,13.17,13.17,0,0,1-1.37-.12v-1.51q.57.06.84.06c.52,0,.84-.19.95-.58Z"/><path class="cls-1" d="M72.73,135H75v2.56h2.46V135h2.27v7.31H77.45v-3H75v3H72.73Z"/><path class="cls-1" d="M81.24,135H83.5v2.56H86V135h2.27v7.31H86v-3H83.5v3H81.24Z"/><path class="cls-1" d="M92,137.78h1.21a4.19,4.19,0,0,1,2.46.58,2.1,2.1,0,0,1,.8,1.83,1.81,1.81,0,0,1-.73,1.55,3.61,3.61,0,0,1-2.11.53H89.75V135H92Zm0,2.92h1.16c.71,0,1.06-.26,1.06-.77s-.35-.67-1.06-.67H92ZM97,135h2.26v7.31H97Z"/><path class="cls-1" d="M100.78,135h6.06v1.56h-3.79v1.16h3.52v1.49h-3.52v1.45H107v1.65h-6.17Z"/><path class="cls-1" d="M50.15,147.55v7.32H48v-4l-2.74,4H43.16v-7.32h2.13v4l2.75-4Z"/><path class="cls-1" d="M51.67,147.55h2.26v2.56H56.4v-2.56h2.27v7.32H56.4v-3H53.93v3H51.67Z"/><path class="cls-1" d="M65,151.87l2,.6a3.5,3.5,0,0,1-.63,1.39,2.65,2.65,0,0,1-1.06.85,4,4,0,0,1-1.62.28,4.54,4.54,0,0,1-2-.35,3,3,0,0,1-1.3-1.21,4.13,4.13,0,0,1-.55-2.24,3.81,3.81,0,0,1,1-2.79,3.69,3.69,0,0,1,2.73-1,3.76,3.76,0,0,1,2.18.56A3.32,3.32,0,0,1,67,149.7l-2,.45a1.51,1.51,0,0,0-.22-.49,1.26,1.26,0,0,0-.46-.4,1.37,1.37,0,0,0-.61-.14,1.34,1.34,0,0,0-1.18.62,2.57,2.57,0,0,0-.31,1.44,2.68,2.68,0,0,0,.37,1.66,1.47,1.47,0,0,0,2,.09A2.23,2.23,0,0,0,65,151.87Z"/><path class="cls-1" d="M67.6,147.55h6.87v1.81h-2.3v5.51H69.91v-5.51H67.6Z"/><path class="cls-1" d="M75.48,147.55h3.76a2.57,2.57,0,0,1,1.84.59,2.17,2.17,0,0,1,.61,1.66,2.24,2.24,0,0,1-.67,1.73,2.9,2.9,0,0,1-2,.62H77.75v2.72H75.48Zm2.27,3.12h.56a1.4,1.4,0,0,0,.92-.23.74.74,0,0,0,.26-.58.82.82,0,0,0-.23-.58,1.18,1.18,0,0,0-.86-.24h-.65Z"/><path class="cls-1" d="M82.19,147.55h2.45l1,3,1-3H89l-2.4,5.65a6.77,6.77,0,0,1-.51,1,1.69,1.69,0,0,1-.65.55,2.63,2.63,0,0,1-1.19.22c-.26,0-.72,0-1.37-.11v-1.52q.57.06.84.06c.52,0,.84-.19,1-.58Z"/><path class="cls-1" d="M89.71,147.55h3L93.83,152,95,147.55h3v7.32H96.09v-5.58l-1.43,5.58H93l-1.42-5.58v5.58H89.71Z"/><path class="cls-1" d="M99.37,147.55h6.06v1.57h-3.79v1.16h3.51v1.49h-3.51v1.44h3.9v1.66H99.37Z"/><path class="cls-1" d="M106.76,147.55H109v2.56h2.47v-2.56h2.27v7.32h-2.27v-3H109v3h-2.26Z"/><path class="cls-1" d="M114.75,147.55h6.87v1.81h-2.31v5.51h-2.26v-5.51h-2.3Z"/><path class="cls-1" d="M124.91,150.37h1.2a4.22,4.22,0,0,1,2.47.59,2.12,2.12,0,0,1,.8,1.82,1.8,1.8,0,0,1-.74,1.55,3.52,3.52,0,0,1-2.11.54h-3.88v-7.32h2.26Zm0,2.92h1.15c.71,0,1.07-.25,1.07-.76s-.36-.68-1.07-.68h-1.15Zm5-5.74h2.27v7.32h-2.27Z"/></g></g></svg>