<svg xmlns="http://www.w3.org/2000/svg" viewBox="0 0 178.5 178.5"><defs><style>.cls-1{font-size:10.22px;font-family:Arial-Black, Arial;font-weight:800;}.cls-1,.cls-2{fill:#fff;}</style></defs><g id="Слой_2" data-name="Слой 2"><g id="Слой_1-2" data-name="Слой 1"><text class="cls-1" transform="translate(42.4 142.27)">УДАРНЫЕ<tspan x="0" y="12.59">ИНСТРУМЕНТЫ</tspan></text><path class="cls-2" d="M131.23,6.3a41,41,0,0,1,41,41v84a41,41,0,0,1-41,41h-84a41,41,0,0,1-41-41v-84a41,41,0,0,1,41-41h84m0-6.3h-84A47.41,47.41,0,0,0,0,47.27v84A47.41,47.41,0,0,0,47.27,178.5h84a47.41,47.41,0,0,0,47.27-47.27v-84A47.41,47.41,0,0,0,131.23,0Z"/><rect class="cls-2" x="44.69" y="98.76" width="92.24" height="4.34"/><rect class="cls-2" x="44.69" y="106.28" width="92.24" height="10.1"/><polygon class="cls-2" points="47.16 34.42 105.18 90.03 109.68 90.27 51.94 29.54 47.16 29.59 47.16 34.42"/><circle class="cls-2" cx="107.85" cy="90.27" r="4.29"/><circle class="cls-2" cx="49.57" cy="32" r="3.42"/><polygon class="cls-2" points="134.46 34.42 76.44 90.03 71.94 90.27 129.67 29.54 134.46 29.59 134.46 34.42"/><circle class="cls-2" cx="73.77" cy="90.27" r="4.29"/><circle class="cls-2" cx="132.04" cy="32" r="3.42"/></g></g></svg>